<svg id="brt-it" xmlns="http://www.w3.org/2000/svg" width="33.29" height="33.29" viewBox="0 0 33.29 33.29">
  <path id="Path_628" data-name="Path 628" d="M33.29,30.69a2.6,2.6,0,0,1-2.6,2.6H2.6A2.6,2.6,0,0,1,0,30.69V2.6A2.6,2.6,0,0,1,2.6,0H30.69a2.6,2.6,0,0,1,2.6,2.6Z" fill="#d10024"/>
  <path id="Path_629" data-name="Path 629" d="M102.079,166.3H99.933v-2.7h6.788v2.7h-2.25v9.317h-2.393Zm-11.47,1.671v-2.451s-.41-1.918-1.918-1.918H84.4v12.022h4.825s1.391-.735,1.391-1.925v-2.536s-.2-1.554-1.469-1.554A1.529,1.529,0,0,0,90.609,167.969Zm-2.516,3.6v1.411a.261.261,0,0,1-.267.267H86.721v-1.964h1.105C88.2,171.285,88.093,171.572,88.093,171.572Zm0-4.746v1.411a.261.261,0,0,1-.267.267H86.721v-1.964h1.105C88.2,166.539,88.093,166.825,88.093,166.825Zm8.771,2.783s1.5-.208,1.5-1.5v-2.757a2.089,2.089,0,0,0-2.185-1.756H92.046v12.022h2.289v-4.259H95.5s.429-.124.429.371v3.882h2.451v-4.7S97.846,169.608,96.864,169.608ZM95.5,168.34H94.374v-1.8H95.5s.468.085.468.286v1.144S96.006,168.34,95.5,168.34Z" transform="translate(-78.912 -152.963)" fill="#fff"/>
</svg>
