<svg id="DHL_Logo" xmlns="http://www.w3.org/2000/svg" width="99.428" height="14.062" viewBox="0 0 99.428 14.062">
  <path id="Path_607" data-name="Path 607" d="M32.058,12.193c-.434.588-1.161,1.611-1.6,2.209-.225.3-.63.855.715.855h7.08s1.141-1.552,2.1-2.851c1.3-1.766.113-5.441-4.54-5.441H17.486l-3.177,4.316H31.623C32.5,11.281,32.485,11.614,32.058,12.193Zm-5.2,4.129c-1.345,0-.939-.553-.715-.857.442-.6,1.181-1.61,1.616-2.2s.439-.912-.436-.912H19.4l-6.38,8.671H28.582a11.016,11.016,0,0,0,8.882-4.7Zm10.121,4.7H46.1l3.46-4.7H40.439S36.977,21.026,36.977,21.026ZM60.526,6.965l-3.5,4.755H52.952l3.5-4.755H47.327l-6.1,8.292H63.547l6.1-8.292ZM50.178,21.026H59.3l3.462-4.7H53.64S50.178,21.026,50.178,21.026ZM0,18.177v1H12.711l.734-1Zm14.812-1.856H0v1H14.076ZM0,21.026H11.349l.731-.993H0Zm86.033-1.85H99.428v-1H86.769Zm-1.361,1.85H99.428v-.993H85.4Zm3.46-4.7-.734,1H99.428v-1ZM76.182,15.257l6.1-8.292H72.622s-6.108,8.292-6.108,8.292Zm-10.45,1.065s-.667.911-.991,1.35c-1.146,1.548-.132,3.354,3.607,3.354H83l3.462-4.7H65.732Z" transform="translate(0 -6.965)" fill="#d50029"/>
</svg>
