<svg id="diners-club-pay-logo" xmlns="http://www.w3.org/2000/svg" width="28.956" height="23.917" viewBox="0 0 28.956 23.917">
  <g id="Group_160" data-name="Group 160" transform="translate(3.309 23.184)">
    <g id="Group_159" data-name="Group 159">
      <path id="Path_489" data-name="Path 489" d="M5.023,39.023l0,0h0Z" transform="translate(-5.023 -39.023)"/>
    </g>
  </g>
  <g id="Group_162" data-name="Group 162" transform="translate(1.17 21.539)">
    <g id="Group_161" data-name="Group 161">
      <path id="Path_490" data-name="Path 490" d="M4.035,36.539c-.153,0-.3-.013-.451-.014v.07h.059a.292.292,0,0,1,.3.329l-.005,1.259-.007.007-.011.011L2.442,36.526c-.1,0-.2.014-.3.014-.121,0-.246-.013-.368-.014v.07h.029a.313.313,0,0,1,.317.315v1.4c0,.265-.074.437-.314.438H1.778v.071c.144,0,.292-.014.439-.014s.277.013.415.014v-.07H2.59c-.263,0-.328-.116-.328-.406V36.937l1.73,1.935H4.1a2.311,2.311,0,0,1-.017-.321V37.034c0-.4.167-.437.312-.437H4.43v-.07C4.3,36.526,4.167,36.539,4.035,36.539Z" transform="translate(-1.777 -36.525)"/>
    </g>
  </g>
  <g id="Group_164" data-name="Group 164" transform="translate(1.142 21.509)">
    <g id="Group_163" data-name="Group 163">
      <path id="Path_491" data-name="Path 491" d="M4.43,36.484c-.138,0-.274.009-.41.009-.155,0-.31-.013-.466-.013H3.539v.128h.088c.1,0,.274.035.275.3v1.225L2.438,36.487c-.113-.005-.209.007-.308.007-.124,0-.255-.013-.383-.013H1.733v.128h.058a.286.286,0,0,1,.289.287v1.4c0,.264-.065.406-.285.408H1.733v.128h.014c.151,0,.3-.013.453-.013s.286.013.429.013h.015v-.127H2.573c-.251,0-.294-.086-.3-.375V37l1.691,1.884.138.006h.016l0-.018a2.307,2.307,0,0,1-.019-.333V37.021c0-.395.144-.405.283-.409h.063v-.128Zm0,.113H4.381c-.14,0-.3.027-.3.425v1.516a2.118,2.118,0,0,0,.02.337H3.976L2.261,36.961v1.373c0,.29.057.39.314.39H2.63v.1c-.143,0-.286-.013-.429-.013s-.3.013-.453.013v-.1h.046c.23,0,.3-.156.3-.422V36.9a.3.3,0,0,0-.3-.3H1.749v-.1c.126,0,.256.014.383.014.1,0,.2-.014.3-.014l1.483,1.669.006-.007V36.912a.276.276,0,0,0-.289-.315H3.555v-.1c.157,0,.31.014.466.014.137,0,.273-.014.41-.014Z" transform="translate(-1.733 -36.48)"/>
    </g>
  </g>
  <g id="Group_166" data-name="Group 166" transform="translate(6.368 21.539)">
    <g id="Group_165" data-name="Group 165">
      <path id="Path_492" data-name="Path 492" d="M11.465,38.3c-.1.375-.293.408-.687.406-.21,0-.42,0-.42-.232v-.79h.414c.232,0,.256.138.273.328L11.116,38c-.007-.123-.01-.246-.01-.368s0-.25.01-.375h-.072c-.018.172-.072.3-.276.293h-.41v-.9h.477c.346,0,.405.176.42.385l.072-.018c-.007-.094-.01-.216-.01-.327,0-.057,0-.111,0-.157-.226,0-.564.014-.837.014s-.611-.013-.815-.014v.07H9.7c.119,0,.261.021.261.206v1.745c0,.184-.142.2-.261.206H9.667v.069c.194,0,.579-.013.871-.013s.671.013.885.013c.028-.167.067-.336.107-.505Z" transform="translate(-9.667 -36.526)"/>
    </g>
  </g>
  <g id="Group_168" data-name="Group 168" transform="translate(3.913 21.405)">
    <g id="Group_167" data-name="Group 167">
      <path id="Path_493" data-name="Path 493" d="M8.2,36.327l-.015-.005,0,.014c-.005.088-.073.089-.166.091H6.279c-.085,0-.147,0-.17-.087V36.33H6v.014a1.8,1.8,0,0,1-.02.281c-.01.1-.026.19-.041.283v.018h.128l0-.012c.055-.247.05-.289.3-.292H6.9v1.765c0,.259-.078.261-.261.265H6.559v.128h.014c.13,0,.364-.014.563-.014.179,0,.412.014.543.014h.014v-.128H7.615c-.159,0-.259-.02-.261-.272V36.622h.532c.211,0,.224.181.233.306v.019l.118-.043.009,0v-.01c0-.09,0-.179.006-.267s.023-.178.037-.269l0-.014Zm.041.3c-.006.091-.006.18-.006.269l-.1.038c-.007-.123-.023-.319-.246-.319H7.338v1.772c0,.258.117.288.275.288h.065v.1c-.13,0-.364-.014-.543-.014-.2,0-.433.014-.563.014v-.1h.063c.184,0,.277-.016.277-.28V36.61H6.365c-.25,0-.26.061-.31.3h-.1c.014-.095.03-.186.04-.285a2,2,0,0,0,.02-.283H6.1c.027.1.11.1.2.1H8.015c.09,0,.173,0,.18-.1l.079.014C8.261,36.443,8.248,36.531,8.238,36.622Z" transform="translate(-5.94 -36.322)"/>
    </g>
  </g>
  <g id="Group_170" data-name="Group 170" transform="translate(3.946 21.439)">
    <g id="Group_169" data-name="Group 169">
      <path id="Path_494" data-name="Path 494" d="M8.223,36.373c-.014.1-.108.1-.192.1H6.3c-.078,0-.165,0-.194-.1H6.048a2.026,2.026,0,0,1-.02.269c-.009.09-.024.178-.038.267h.072c.043-.232.073-.308.321-.3h.561v1.795c0,.268-.108.3-.29.3H6.6v.068c.132,0,.357-.013.549-.013.174,0,.4.013.528.013V38.7H7.632c-.161,0-.292-.042-.292-.3V36.611H7.9c.225,0,.253.192.261.316l.071-.027c0-.086,0-.173.007-.261s.022-.171.035-.258Z" transform="translate(-5.99 -36.373)"/>
    </g>
  </g>
  <g id="Group_172" data-name="Group 172" transform="translate(0 21.509)">
    <g id="Group_171" data-name="Group 171">
      <path id="Path_495" data-name="Path 495" d="M1.03,36.481c-.157,0-.357.013-.522.013S.146,36.48.014,36.48H0v.128H.061c.121,0,.231.014.232.177V38.53c0,.163-.111.174-.232.176H0v.128H.014c.132,0,.328-.014.49-.014s.366.014.526.014h.015v-.128H.984c-.121,0-.233-.012-.233-.175V36.786c0-.163.111-.175.233-.177h.061v-.128Zm0,.116H.983c-.12,0-.247.015-.247.19v1.744c0,.175.127.19.247.19H1.03v.1c-.16,0-.36-.013-.526-.013s-.36.013-.49.013v-.1H.06c.12,0,.246-.014.246-.19V36.787c0-.175-.126-.19-.246-.19H.013v-.1c.13,0,.33.013.494.013s.366-.013.522-.013Z" transform="translate(0 -36.48)"/>
    </g>
  </g>
  <g id="Group_174" data-name="Group 174" transform="translate(5.457 0)">
    <g id="Group_173" data-name="Group 173">
      <path id="Path_496" data-name="Path 496" d="M18.854,3.825H15.492a7.049,7.049,0,0,0-7.207,7.208,7.159,7.159,0,0,0,7.207,7.084h3.362a7.427,7.427,0,0,0,7.472-7.084A7.3,7.3,0,0,0,18.854,3.825ZM15.508,17.5a6.543,6.543,0,1,1,6.541-6.543A6.544,6.544,0,0,1,15.508,17.5Z" transform="translate(-8.285 -3.825)"/>
    </g>
  </g>
  <g id="Group_176" data-name="Group 176" transform="translate(21.28 15.51)">
    <g id="Group_175" data-name="Group 175">
      <path id="Path_497" data-name="Path 497" d="M33.515,31.894c-.172,0-.307,0-.307-.2V27.46c0-.05-.011-.088-.049-.088a.664.664,0,0,0-.135.069,3.649,3.649,0,0,1-.63.263v.1c.233.068.325.08.325.478V31.69c0,.2-.123.2-.3.2h-.117v.158c.228-.005.448-.013.668-.013s.437.013.643.013v-.157Z" transform="translate(-32.306 -27.372)"/>
    </g>
  </g>
  <g id="Group_178" data-name="Group 178" transform="translate(14.164 3.262)">
    <g id="Group_177" data-name="Group 177" transform="translate(0 0)">
      <path id="Path_498" data-name="Path 498" d="M21.5,8.778v7.741a4.145,4.145,0,0,0,0-7.741Z" transform="translate(-21.503 -8.778)"/>
    </g>
  </g>
  <g id="Group_180" data-name="Group 180" transform="translate(25.614 15.509)">
    <g id="Group_179" data-name="Group 179">
      <path id="Path_499" data-name="Path 499" d="M40.614,29.253a1.548,1.548,0,0,0-.911.441V27.458c0-.05-.014-.087-.05-.087a.584.584,0,0,0-.134.068,3.7,3.7,0,0,1-.632.263v.1c.234.07.326.08.326.479v2.633A7.137,7.137,0,0,1,39.127,32l.128.067.184-.142a1.781,1.781,0,0,0,.85.215,1.547,1.547,0,0,0,1.464-1.605A1.192,1.192,0,0,0,40.614,29.253Zm-.281,2.733a.659.659,0,0,1-.63-.624V29.873a.936.936,0,0,1,.582-.288,1.168,1.168,0,0,1,.979,1.213C41.264,31.341,40.99,31.986,40.333,31.986Z" transform="translate(-38.887 -27.371)"/>
    </g>
  </g>
  <g id="Group_182" data-name="Group 182" transform="translate(22.59 17.485)">
    <g id="Group_181" data-name="Group 181">
      <path id="Path_500" data-name="Path 500" d="M37.089,32.857c-.1,0-.171-.005-.171-.116V30.48c0-.069,0-.11-.049-.11s-.4.048-.954.085v.111c.22.062.514.128.514.252v1.648a1.386,1.386,0,0,1-.741.371c-.533,0-.533-.528-.534-.711V30.548c0-.136,0-.177-.068-.177s-.57.036-.79.041v.117c.343.029.368.182.368.343V32.44a.661.661,0,0,0,.673.728,1.661,1.661,0,0,0,1.084-.513v.5l.031.018a6.217,6.217,0,0,1,.884-.19v-.127C37.255,32.852,37.163,32.857,37.089,32.857Z" transform="translate(-34.296 -30.37)"/>
    </g>
  </g>
  <g id="Group_184" data-name="Group 184" transform="translate(13.661 17.392)">
    <g id="Group_183" data-name="Group 183">
      <path id="Path_501" data-name="Path 501" d="M21.188,30.828a.431.431,0,0,1,.477-.4.63.63,0,0,1,.669.606h.142l-.042-.624a1.611,1.611,0,0,0-.7-.179.841.841,0,0,0-.949.784c0,.985,1.333.75,1.333,1.475a.436.436,0,0,1-.5.438.808.808,0,0,1-.772-.748l-.11.032.068.7a1.623,1.623,0,0,0,.747.207c.729,0,1.054-.429,1.054-.835C22.609,31.325,21.188,31.546,21.188,30.828Z" transform="translate(-20.74 -30.229)"/>
    </g>
  </g>
  <g id="Group_186" data-name="Group 186" transform="translate(0.02 15.915)">
    <g id="Group_185" data-name="Group 185">
      <path id="Path_502" data-name="Path 502" d="M1.813,27.987c-.453,0-.8.014-1.06.014-.239,0-.483,0-.722-.014v.159c.275.007.563-.031.563.52h0v2.972c-.017.416-.2.427-.563.466v.157c.275-.005.545-.012.821-.012s.576.012.888.012c2.168,0,2.522-1.523,2.522-2.129A2.23,2.23,0,0,0,1.813,27.987Zm.018,4.078c-.3,0-.637-.055-.637-.526v-3.33a4.628,4.628,0,0,1,.478-.024,1.84,1.84,0,0,1,1.917,1.971A1.705,1.705,0,0,1,1.831,32.065Z" transform="translate(-0.031 -27.987)"/>
    </g>
  </g>
  <g id="Group_188" data-name="Group 188" transform="translate(0.028 21.539)">
    <g id="Group_187" data-name="Group 187">
      <path id="Path_503" data-name="Path 503" d="M1,36.6H1.03v-.07c-.153,0-.346.014-.508.014s-.35-.013-.48-.014v.07H.075c.119,0,.261.021.261.206v1.744c0,.186-.142.205-.261.205H.043v.07c.129,0,.317-.014.475-.014s.355.013.512.014v-.07H1c-.119,0-.261-.02-.261-.205V36.8C.737,36.617.879,36.6,1,36.6Z" transform="translate(-0.043 -36.526)"/>
    </g>
  </g>
  <g id="Group_190" data-name="Group 190" transform="translate(4.466 17.394)">
    <g id="Group_189" data-name="Group 189">
      <path id="Path_504" data-name="Path 504" d="M7.987,32.872c-.171,0-.306,0-.306-.2v-2.35c0-.049-.013-.086-.043-.086a.22.22,0,0,0-.111.03c-.024.018-.366.133-.654.221v.1c.226.121.319.158.319.427v1.66c0,.2-.124.2-.294.2H6.78v.158c.227-.007.447-.013.667-.013s.435.009.644.013v-.158Z" transform="translate(-6.78 -30.232)"/>
    </g>
  </g>
  <g id="Group_192" data-name="Group 192" transform="translate(11.417 17.392)">
    <g id="Group_191" data-name="Group 191">
      <path id="Path_505" data-name="Path 505" d="M19.072,30.23c-.373,0-.63.393-.783.63h-.013v-.552c0-.061-.018-.078-.055-.078-.055,0-.3.158-.748.348v.092c.092.048.318.086.318.276v1.718c0,.2-.123.2-.293.2h-.165v.158c.221-.005.477-.013.729-.013s.52.007.856.013v-.157h-.343c-.171,0-.294,0-.294-.2V31.227a.512.512,0,0,1,.448-.507c.214,0,.214.148.4.148a.3.3,0,0,0,.288-.314A.334.334,0,0,0,19.072,30.23Z" transform="translate(-17.333 -30.23)"/>
    </g>
  </g>
  <g id="Group_194" data-name="Group 194" transform="translate(4.822 15.848)">
    <g id="Group_193" data-name="Group 193">
      <path id="Path_506" data-name="Path 506" d="M7.619,27.886a.312.312,0,0,0-.3.294.315.315,0,0,0,.3.308.308.308,0,0,0,.3-.308A.3.3,0,0,0,7.619,27.886Z" transform="translate(-7.32 -27.886)"/>
    </g>
  </g>
  <g id="Group_196" data-name="Group 196" transform="translate(9.002 17.39)">
    <g id="Group_195" data-name="Group 195">
      <path id="Path_507" data-name="Path 507" d="M15.883,32.34a1.174,1.174,0,0,1-.827.409,1.022,1.022,0,0,1-.9-1.058,1.37,1.37,0,0,1,0-.355h1.72l.055-.038a.764.764,0,0,0,.005-.111.972.972,0,0,0-1.035-.961c-.428,0-1.237.355-1.237,1.555a1.231,1.231,0,0,0,1.17,1.335,1.435,1.435,0,0,0,1.132-.692Zm-1-1.915a.519.519,0,0,1,.534.563c0,.072-.018.153-.171.153H14.176C14.25,30.7,14.507,30.425,14.88,30.425Z" transform="translate(-13.667 -30.227)"/>
    </g>
  </g>
  <g id="Group_198" data-name="Group 198" transform="translate(8.535 3.262)">
    <g id="Group_197" data-name="Group 197" transform="translate(0 0)">
      <path id="Path_508" data-name="Path 508" d="M12.958,12.648a4.149,4.149,0,0,0,2.66,3.869V8.778A4.153,4.153,0,0,0,12.958,12.648Z" transform="translate(-12.958 -8.778)"/>
    </g>
  </g>
  <g id="Group_200" data-name="Group 200" transform="translate(21.667 21.539)">
    <g id="Group_199" data-name="Group 199">
      <path id="Path_509" data-name="Path 509" d="M35.152,36.54c-.152,0-.3-.013-.448-.013V36.6h.059a.293.293,0,0,1,.3.329l0,1.259-.008.007-.012.012-1.482-1.676c-.1,0-.2.014-.3.014-.123,0-.247-.013-.37-.014V36.6h.03a.315.315,0,0,1,.317.316v1.4c0,.265-.076.437-.315.438h-.034v.069c.144,0,.292-.013.44-.013s.277.013.414.013v-.069h-.042c-.261,0-.328-.116-.328-.406V36.937l1.73,1.935h.109a2.537,2.537,0,0,1-.016-.321V37.034c0-.4.167-.437.31-.439h.036v-.069C35.417,36.527,35.284,36.54,35.152,36.54Z" transform="translate(-32.894 -36.526)"/>
    </g>
  </g>
  <g id="Group_202" data-name="Group 202" transform="translate(6.34 21.508)">
    <g id="Group_201" data-name="Group 201">
      <path id="Path_510" data-name="Path 510" d="M11.445,38.251H11.43v0l0,.013c-.1.374-.261.394-.662.4-.217,0-.393,0-.393-.2V37.7h.385c.221,0,.223.114.246.316v.016l.115-.022.013,0V37.99c-.006-.127-.011-.254-.011-.38s0-.261.011-.389v-.014H11v.013c-.022.179-.057.279-.249.281h-.382v-.844h.449c.344,0,.372.159.392.376v.016l.117-.03.011,0V37c-.007-.1-.011-.22-.011-.336,0-.064,0-.123,0-.173v-.014H11.32c-.227,0-.572.013-.852.013s-.626-.013-.829-.013H9.625v.128h.061c.121,0,.231.014.231.178v1.744c0,.163-.11.175-.231.177H9.625v.127h.014c.19,0,.586-.013.885-.013s.683.013.9.013h.012l0-.012c.03-.177.07-.352.113-.529l0-.014Zm-.024.571c-.214,0-.6-.014-.9-.014s-.7.014-.887.014v-.1h.047c.121,0,.246-.016.246-.19V36.787c0-.175-.126-.19-.246-.19H9.639v-.1c.2,0,.55.014.83.014s.625-.014.852-.014c-.005.144,0,.364.009.51l-.1.026c-.016-.216-.056-.39-.406-.39h-.462v.873h.4c.2,0,.242-.113.261-.294h.1c-.007.131-.01.261-.01.391s0,.253.01.38l-.1.02c-.02-.2-.029-.329-.26-.329h-.4v.775c0,.217.192.217.406.217.4,0,.576-.027.676-.406l.094.022C11.491,38.469,11.451,38.644,11.421,38.822Z" transform="translate(-9.625 -36.479)"/>
    </g>
  </g>
  <g id="Group_204" data-name="Group 204" transform="translate(21.638 21.512)">
    <g id="Group_203" data-name="Group 203">
      <path id="Path_511" data-name="Path 511" d="M35.549,36.485c-.139,0-.275.013-.412.013-.154,0-.308-.013-.466-.013h-.015v.128h.089a.262.262,0,0,1,.277.3v1.225l-1.466-1.648c-.113-.005-.208.007-.309.007-.124,0-.255-.013-.382-.013H32.85v.128h.058a.284.284,0,0,1,.289.285v1.4c0,.265-.067.406-.287.408h-.06v.128h.014c.151,0,.3-.014.453-.014s.285.014.428.014h.014v-.128h-.07c-.251,0-.294-.085-.3-.375V37l1.689,1.884.138,0h.016l0-.014a2.267,2.267,0,0,1-.018-.335V37.021c0-.393.146-.405.282-.409h.069v-.127Zm0,.114H35.5c-.144,0-.3.026-.3.422v1.517a2.037,2.037,0,0,0,.02.336h-.127l-1.715-1.913v1.373c0,.29.057.391.314.391h.057v.1c-.143,0-.287-.014-.428-.014s-.3.014-.453.014v-.1h.045c.231,0,.3-.156.3-.423V36.9a.3.3,0,0,0-.3-.3h-.043v-.1c.125,0,.257.014.382.014.1,0,.2-.014.3-.014l1.483,1.67,0,0,0,0V36.912a.274.274,0,0,0-.29-.314h-.07v-.1c.155,0,.309.014.466.014.136,0,.273-.014.41-.014v.1Z" transform="translate(-32.85 -36.484)"/>
    </g>
  </g>
  <g id="Group_206" data-name="Group 206" transform="translate(19.531 21.622)">
    <g id="Group_205" data-name="Group 205">
      <path id="Path_512" data-name="Path 512" d="M30.407,36.651c-.583,0-.755.521-.755.966,0,.6.273,1.167.812,1.167.647,0,.759-.57.759-1.057S30.962,36.651,30.407,36.651Zm.058,2.118c-.528,0-.8-.559-.8-1.153,0-.444.171-.95.741-.951.543,0,.8.579.8,1.061S31.1,38.769,30.465,38.769Z" transform="translate(-29.652 -36.651)"/>
    </g>
  </g>
  <g id="Group_208" data-name="Group 208" transform="translate(19.078 21.489)">
    <g id="Group_207" data-name="Group 207">
      <path id="Path_513" data-name="Path 513" d="M30.181,36.45a1.2,1.2,0,0,0-1.217,1.217A1.165,1.165,0,0,0,30.2,38.848a1.211,1.211,0,0,0,1.246-1.262A1.158,1.158,0,0,0,30.181,36.45Zm.049,2.28c-.553,0-.826-.581-.827-1.181,0-.449.177-.979.769-.979.567,0,.831.6.832,1.089S30.889,38.73,30.23,38.73Z" transform="translate(-28.964 -36.45)"/>
    </g>
  </g>
  <g id="Group_210" data-name="Group 210" transform="translate(25.041 21.898)">
    <g id="Group_209" data-name="Group 209">
      <path id="Path_514" data-name="Path 514" d="M38.333,37.071h-.007l-.309.943h.623Zm0,.036.289.892h-.582Z" transform="translate(-38.017 -37.071)"/>
    </g>
  </g>
  <g id="Group_212" data-name="Group 212" transform="translate(19.05 21.461)">
    <g id="Group_211" data-name="Group 211">
      <path id="Path_515" data-name="Path 515" d="M30.166,36.407a1.23,1.23,0,0,0-1.245,1.246,1.2,1.2,0,0,0,1.261,1.211,1.241,1.241,0,0,0,1.275-1.292A1.185,1.185,0,0,0,30.166,36.407Zm.016,2.44a1.177,1.177,0,0,1-1.246-1.2,1.21,1.21,0,0,1,1.228-1.23,1.169,1.169,0,0,1,1.277,1.149A1.22,1.22,0,0,1,30.182,38.847Z" transform="translate(-28.921 -36.407)"/>
    </g>
  </g>
  <g id="Group_214" data-name="Group 214" transform="translate(26.748 21.512)">
    <g id="Group_213" data-name="Group 213">
      <path id="Path_516" data-name="Path 516" d="M42.408,38.244H42.4l0,.013a.691.691,0,0,1-.1.234.466.466,0,0,1-.312.173,2.052,2.052,0,0,1-.252.014c-.065,0-.124,0-.184-.007-.1-.015-.185-.047-.186-.173V36.779c0-.169.084-.162.212-.166h.1v-.128h-.014c-.171,0-.339.013-.507.013s-.351-.013-.528-.013h-.014v.128h.061c.123,0,.235.014.236.176V38.5c0,.2-.117.206-.236.207h-.06v.128h.014c.293,0,.588-.014.88-.014s.587.014.879.014h.012l0-.012c.041-.19.087-.374.124-.566l0-.016h-.115Zm-.027.58c-.291,0-.586-.014-.877-.014s-.587.014-.88.014v-.1h.045c.121,0,.252-.016.252-.225V36.788c0-.176-.131-.19-.252-.19h-.045v-.1c.177,0,.35.013.527.013s.336-.013.507-.013v.1h-.085c-.125,0-.225,0-.225.179V38.5c0,.134.093.174.2.187a2.418,2.418,0,0,0,.44-.007.471.471,0,0,0,.319-.179.752.752,0,0,0,.1-.24h.1C42.469,38.448,42.423,38.634,42.381,38.824Z" transform="translate(-40.608 -36.485)"/>
    </g>
  </g>
  <g id="Group_216" data-name="Group 216" transform="translate(24.335 21.454)">
    <g id="Group_215" data-name="Group 215">
      <path id="Path_517" data-name="Path 517" d="M39.237,38.709A.229.229,0,0,1,39,38.566c-.042-.1-.084-.226-.123-.343l-.614-1.743c-.011-.026-.019-.057-.028-.079,0-.005,0-.005-.006-.005h-.005a.063.063,0,0,0-.019.005,1.277,1.277,0,0,1-.3.134,2.85,2.85,0,0,1-.124.416l-.535,1.529a.316.316,0,0,1-.3.228h-.006v.069c.115-.007.23-.014.346-.014s.261.007.389.014v-.069h-.023c-.108,0-.26-.014-.263-.132a1.4,1.4,0,0,1,.072-.263l.109-.358h.778l.135.4a1.077,1.077,0,0,1,.068.244c-.006.1-.146.11-.221.113h-.022v.069h0c.165-.007.327-.014.484-.014s.3.007.446.014v-.069ZM37.63,37.8l.319-.972h.03l.316.972Z" transform="translate(-36.944 -36.396)"/>
    </g>
  </g>
  <g id="Group_218" data-name="Group 218" transform="translate(28.256 21.431)">
    <g id="Group_217" data-name="Group 217">
      <path id="Path_518" data-name="Path 518" d="M43.248,36.362a.35.35,0,1,0,.349.351A.344.344,0,0,0,43.248,36.362Zm0,.636a.286.286,0,1,1,.277-.286A.285.285,0,0,1,43.248,37Z" transform="translate(-42.897 -36.362)"/>
    </g>
  </g>
  <g id="Group_220" data-name="Group 220" transform="translate(28.432 21.594)">
    <g id="Group_219" data-name="Group 219">
      <path id="Path_519" data-name="Path 519" d="M43.44,36.887l-.06-.079a.11.11,0,0,0,.082-.106c0-.064-.055-.093-.119-.093h-.179v.017c.045,0,.05.011.05.046v.26c0,.027-.009.026-.051.033v.016h.17v-.016c-.043-.007-.053-.006-.053-.028v-.119h.04c.065.094.095.162.126.162h.068V36.97A.345.345,0,0,1,43.44,36.887Zm-.117-.09h-.042v-.166h.04c.038,0,.069.02.069.077S43.369,36.8,43.323,36.8Z" transform="translate(-43.164 -36.609)"/>
    </g>
  </g>
  <g id="Group_222" data-name="Group 222" transform="translate(24.307 21.425)">
    <g id="Group_221" data-name="Group 221">
      <path id="Path_520" data-name="Path 520" d="M39.222,38.661h0a.2.2,0,0,1-.206-.122c-.042-.1-.082-.221-.124-.34l-.613-1.743c-.012-.028-.02-.058-.031-.085a.042.042,0,0,0-.036-.019.067.067,0,0,0-.031.009,1.919,1.919,0,0,1-.3.144c-.03.132-.09.3-.13.422l-.535,1.529a.287.287,0,0,1-.277.206H36.9v.128h.014c.122-.007.24-.014.36-.014s.269.007.4.014h.014v-.127h-.05c-.111,0-.233-.02-.233-.1a1.366,1.366,0,0,1,.071-.256l.1-.337h.736l.126.377a1.023,1.023,0,0,1,.067.234c0,.065-.116.082-.193.082h-.049v.13h.015c.169-.006.336-.014.5-.014s.309.008.458.014h.015v-.13h-.034Zm.022.118c-.151-.007-.3-.014-.46-.014s-.329.007-.5.014v-.1h.036c.076,0,.207-.014.207-.1a1.076,1.076,0,0,0-.069-.239l-.13-.387h-.755l-.108.347a1.381,1.381,0,0,0-.072.26c0,.1.14.117.25.117h.038v.1c-.134-.007-.27-.013-.4-.013s-.239.006-.36.013v-.1h.019a.3.3,0,0,0,.29-.217l.534-1.527a2.753,2.753,0,0,0,.123-.414,1.665,1.665,0,0,0,.3-.144.108.108,0,0,1,.027-.007.022.022,0,0,1,.023.011c.011.027.021.057.031.082l.613,1.743c.04.117.08.239.124.341a.208.208,0,0,0,.218.132h.02Z" transform="translate(-36.902 -36.352)"/>
    </g>
  </g>
  <g id="Group_224" data-name="Group 224" transform="translate(26.778 21.54)">
    <g id="Group_223" data-name="Group 223">
      <path id="Path_521" data-name="Path 521" d="M42.435,38.286a.76.76,0,0,1-.1.235.509.509,0,0,1-.328.185,2.52,2.52,0,0,1-.257.014c-.065,0-.126,0-.188-.009-.107-.012-.213-.058-.213-.2V36.792c0-.184.117-.2.241-.2h.069v-.07c-.165,0-.327.014-.491.014s-.341-.013-.513-.014v.07h.033c.117,0,.264.022.264.206v1.715c0,.214-.144.236-.264.236h-.033v.07c.289,0,.576-.014.866-.014s.578.014.867.014c.039-.18.084-.358.119-.537Z" transform="translate(-40.653 -36.527)"/>
    </g>
  </g>
  <g id="Group_226" data-name="Group 226" transform="translate(17.935 21.509)">
    <g id="Group_225" data-name="Group 225">
      <path id="Path_522" data-name="Path 522" d="M28.212,38.706c-.122,0-.231-.012-.233-.175V36.786c0-.163.111-.175.233-.177h.059V36.48h-.014c-.155,0-.356.014-.522.014s-.363-.013-.493-.013h-.014v.128h.062c.121,0,.231.014.233.177v1.745c0,.163-.112.175-.233.176h-.062v.128h.014c.13,0,.328-.014.491-.014s.364.014.525.014h.014v-.128Zm.046.115c-.159,0-.359-.013-.525-.013s-.361.013-.491.013v-.1h.047c.121,0,.246-.014.246-.19V36.786c0-.175-.125-.19-.246-.19h-.046v-.1c.13,0,.329.013.493.013s.37-.013.524-.013v.1h-.045c-.121,0-.247.015-.247.19V38.53c0,.175.126.19.247.19h.045v.1Z" transform="translate(-27.229 -36.48)"/>
    </g>
  </g>
  <g id="Group_228" data-name="Group 228" transform="translate(10.763 21.511)">
    <g id="Group_227" data-name="Group 227">
      <path id="Path_523" data-name="Path 523" d="M19.036,36.484c-.137,0-.273.014-.41.014-.155,0-.309-.014-.466-.014h-.014v.128h.088c.1,0,.275.036.275.3v1.225l-1.465-1.649c-.111,0-.208.009-.306.009-.126,0-.256-.013-.383-.013H16.34v.128H16.4a.284.284,0,0,1,.289.285v1.4c0,.266-.065.408-.285.409H16.34v.128h.015c.15,0,.3-.014.453-.014s.285.014.429.014h.014v-.128h-.07c-.252,0-.3-.085-.3-.375V37l1.691,1.884.137.005h.016l0-.015a2.027,2.027,0,0,1-.02-.336V37.022c0-.394.145-.405.283-.409h.064v-.13h-.014Zm0,.113h-.05c-.14,0-.3.027-.3.424v1.517a2.2,2.2,0,0,0,.019.336h-.127L16.867,36.96v1.373c0,.29.057.391.314.391h.055v.1c-.142,0-.286-.014-.429-.014s-.3.014-.453.014v-.1H16.4c.231,0,.3-.157.3-.424V36.9a.3.3,0,0,0-.3-.3h-.042v-.1c.125,0,.257.013.383.013.1,0,.2-.013.3-.013l1.483,1.669h0l0,0,0,0V36.911a.275.275,0,0,0-.289-.314h-.072v-.1c.157,0,.31.013.466.013.137,0,.273-.013.41-.013Z" transform="translate(-16.34 -36.483)"/>
    </g>
  </g>
  <g id="Group_230" data-name="Group 230" transform="translate(10.791 21.539)">
    <g id="Group_229" data-name="Group 229">
      <path id="Path_524" data-name="Path 524" d="M18.641,36.54c-.153,0-.3-.013-.452-.014V36.6h.059a.293.293,0,0,1,.3.329l0,1.259-.006.007-.011.012-1.483-1.676c-.1,0-.2.014-.3.014-.123,0-.248-.013-.37-.014V36.6h.029a.314.314,0,0,1,.317.316v1.4c0,.266-.076.438-.314.439h-.033v.069c.144,0,.292-.014.439-.014s.278.014.416.014v-.069H17.2c-.263,0-.328-.116-.329-.406v-1.41l1.73,1.935h.11a2.213,2.213,0,0,1-.017-.321V37.034c0-.4.167-.437.311-.439h.035v-.069C18.9,36.527,18.773,36.54,18.641,36.54Z" transform="translate(-16.382 -36.526)"/>
    </g>
  </g>
  <g id="Group_232" data-name="Group 232" transform="translate(8.415 21.54)">
    <g id="Group_231" data-name="Group 231">
      <path id="Path_525" data-name="Path 525" d="M14.7,38.547l-.58-.868.016-.007a.613.613,0,0,0,.454-.574c0-.462-.36-.57-.779-.572-.176,0-.336.014-.536.014s-.394-.013-.5-.014V36.6h.045c.1,0,.251.016.251.267v1.693c0,.134-.124.2-.251.2h-.045v.069c.16,0,.312-.014.468-.014.187,0,.375.014.559.014v-.069h-.045c-.151,0-.289-.018-.289-.284v-.727h.243l0,.008a10.307,10.307,0,0,0,.682,1.073c.1,0,.207-.014.312-.014s.209.011.313.014v-.072A.384.384,0,0,1,14.7,38.547Zm-1.055-.894H13.47V36.632h.014a1.492,1.492,0,0,1,.191-.013.471.471,0,0,1,.5.5C14.175,37.518,13.984,37.653,13.649,37.653Z" transform="translate(-12.776 -36.527)"/>
    </g>
  </g>
  <g id="Group_234" data-name="Group 234" transform="translate(8.387 21.512)">
    <g id="Group_233" data-name="Group 233">
      <path id="Path_526" data-name="Path 526" d="M15.025,38.706a.346.346,0,0,1-.312-.19l-.56-.837a.639.639,0,0,0,.456-.594c0-.483-.387-.6-.808-.6-.178,0-.337.014-.536.014s-.409-.014-.516-.014h-.014v.129h.074c.1,0,.219,0,.222.237v1.693c0,.113-.1.165-.222.165h-.074v.128h.014c.167,0,.323-.014.482-.014.189,0,.383.014.573.014h.015v-.128h-.074c-.154,0-.255,0-.259-.253v-.7h.2a9.377,9.377,0,0,0,.69,1.074c.116.005.223-.009.324-.009s.216.014.327.014h.014v-.128Zm0,.118c-.109,0-.217-.014-.326-.014s-.211.014-.314.014a9.331,9.331,0,0,1-.693-1.082h-.219v.714c0,.258.119.267.273.267h.06v.1c-.191,0-.383-.014-.573-.014-.16,0-.317.014-.483.014v-.1h.059c.124,0,.237-.057.237-.179V36.851c0-.241-.134-.253-.237-.253h-.059v-.1c.107,0,.313.013.516.013s.36-.013.536-.013c.42,0,.794.113.794.587a.63.63,0,0,1-.464.586l.569.852a.371.371,0,0,0,.323.2Z" transform="translate(-12.733 -36.484)"/>
    </g>
  </g>
  <g id="Group_236" data-name="Group 236" transform="translate(17.964 21.539)">
    <g id="Group_235" data-name="Group 235">
      <path id="Path_527" data-name="Path 527" d="M28.227,36.6h.031v-.07c-.153,0-.346.014-.508.014s-.35-.013-.478-.014v.07H27.3c.119,0,.261.021.261.206v1.744c0,.184-.141.205-.261.205h-.031v.069c.128,0,.316-.013.475-.013s.354.013.51.013v-.069h-.031c-.121,0-.261-.022-.261-.205V36.8C27.967,36.617,28.106,36.6,28.227,36.6Z" transform="translate(-27.273 -36.526)"/>
    </g>
  </g>
  <g id="Group_238" data-name="Group 238" transform="translate(5.955 17.39)">
    <g id="Group_237" data-name="Group 237">
      <path id="Path_528" data-name="Path 528" d="M12.114,32.868H12c-.172,0-.306,0-.306-.2V31.085c0-.478-.184-.857-.7-.857a1.8,1.8,0,0,0-1.06.459v-.4c0-.049-.018-.062-.036-.062a8.569,8.569,0,0,1-.809.294v.116c.287.115.356.177.356.4h0v1.622c0,.2-.122.2-.293.2h-.11v.157c.22-.007.441-.013.661-.013s.435.013.649.013v-.157h-.11c-.171,0-.308,0-.308-.2V30.851a1.658,1.658,0,0,1,.711-.294c.35,0,.563.173.563.522v1.585c0,.2-.122.2-.293.2H10.8v.157c.219-.005.44-.012.661-.012s.434.012.649.012Z" transform="translate(-9.041 -30.227)"/>
    </g>
  </g>
  <g id="Group_240" data-name="Group 240" transform="translate(9.125 21.644)">
    <g id="Group_239" data-name="Group 239">
      <path id="Path_529" data-name="Path 529" d="M14.043,36.685a1.784,1.784,0,0,0-.19.014v.993h.163c.333,0,.512-.126.512-.52A.455.455,0,0,0,14.043,36.685Zm-.026.993h-.149v-.966a1.32,1.32,0,0,1,.175-.013.443.443,0,0,1,.473.474C14.513,37.559,14.346,37.673,14.016,37.678Z" transform="translate(-13.853 -36.685)"/>
    </g>
  </g>
  <g id="Group_242" data-name="Group 242" transform="translate(15.492 21.405)">
    <g id="Group_241" data-name="Group 241">
      <path id="Path_530" data-name="Path 530" d="M25.778,36.327l-.018-.005v.014c-.005.088-.071.089-.165.091H23.86c-.086,0-.147,0-.17-.087l0-.011h-.1v.014a2.191,2.191,0,0,1-.02.281c-.011.1-.027.19-.041.284v.016h.128l0-.012c.055-.247.049-.288.3-.292h.532v1.765c-.006.259-.078.261-.262.265h-.078v.128h.015c.13,0,.364-.014.563-.014.179,0,.412.014.543.014h.013v-.128h-.078c-.158,0-.26-.02-.261-.272V36.622h.533c.209,0,.224.181.233.306v.019l.117-.043.01,0v-.01c0-.089,0-.179.007-.267s.023-.178.036-.269l0-.014Zm.039.3c-.007.091-.007.18-.007.269l-.1.038c-.007-.123-.023-.319-.246-.319h-.548v1.772c0,.258.117.288.277.288h.062v.1c-.127,0-.362-.014-.541-.014-.2,0-.433.014-.563.014v-.1h.063c.184,0,.277-.016.277-.28V36.61h-.547c-.25,0-.261.061-.311.3h-.1c.014-.095.031-.186.041-.285a1.912,1.912,0,0,0,.02-.283h.081c.026.1.109.1.2.1h1.719c.091,0,.173,0,.179-.1l.08.014C25.84,36.443,25.828,36.531,25.817,36.622Z" transform="translate(-23.519 -36.322)"/>
    </g>
  </g>
  <g id="Group_244" data-name="Group 244" transform="translate(15.522 21.439)">
    <g id="Group_243" data-name="Group 243">
      <path id="Path_531" data-name="Path 531" d="M25.8,36.373c-.014.1-.109.1-.195.1H23.871c-.078,0-.163,0-.194-.1h-.054a1.922,1.922,0,0,1-.02.269c-.009.09-.026.18-.038.267h.07c.043-.232.073-.308.321-.3h.559v1.8c0,.267-.107.293-.29.294h-.048v.069c.132,0,.356-.014.549-.014.175,0,.4.013.528.014V38.7h-.048c-.159,0-.289-.041-.289-.3V36.611h.561c.224,0,.254.192.259.316l.073-.027c0-.086,0-.174.007-.261s.022-.171.036-.258Z" transform="translate(-23.565 -36.373)"/>
    </g>
  </g>
  <g id="Group_246" data-name="Group 246" transform="translate(17.232 15.823)">
    <g id="Group_245" data-name="Group 245">
      <path id="Path_532" data-name="Path 532" d="M29.855,31.053a1.246,1.246,0,0,1-1.23,1.058A2,2,0,0,1,26.8,29.986a1.745,1.745,0,0,1,1.726-1.941,1.163,1.163,0,0,1,1.309,1h.151l-.061-.876a4.445,4.445,0,0,0-1.446-.325A2.251,2.251,0,0,0,26.161,30a2.18,2.18,0,0,0,2.339,2.3,3.427,3.427,0,0,0,1.355-.324l.14-.893Z" transform="translate(-26.161 -27.848)"/>
    </g>
  </g>
  <g id="Group_248" data-name="Group 248" transform="translate(13.431 21.426)">
    <g id="Group_247" data-name="Group 247">
      <path id="Path_533" data-name="Path 533" d="M22.708,38.661a.189.189,0,0,1-.2-.12c-.042-.1-.082-.221-.123-.34l-.615-1.743c-.011-.028-.02-.058-.03-.085a.044.044,0,0,0-.037-.019.089.089,0,0,0-.032.009,1.713,1.713,0,0,1-.3.143,3.848,3.848,0,0,1-.132.423L20.7,38.458a.284.284,0,0,1-.275.206H20.39v.128h.016c.119-.007.238-.014.359-.014s.269.007.4.014h.014v-.128H21.13c-.111,0-.234-.02-.236-.1a1.459,1.459,0,0,1,.074-.256l.1-.337h.734l.127.377a.928.928,0,0,1,.066.234c0,.065-.113.082-.192.082h-.051v.13h.014c.171-.006.336-.014.5-.014s.31.008.458.014h.014v-.13Zm.022.119h0c-.15-.007-.3-.014-.458-.014s-.331.007-.5.014v-.1h.038c.077,0,.206-.014.206-.1a1.076,1.076,0,0,0-.067-.239l-.13-.387h-.756l-.106.347a1.321,1.321,0,0,0-.074.26c0,.1.14.117.25.117h.038v.1c-.134-.007-.27-.013-.4-.013s-.239.006-.359.013v-.1h.02a.3.3,0,0,0,.289-.217l.534-1.527a2.68,2.68,0,0,0,.124-.414,1.622,1.622,0,0,0,.3-.144.09.09,0,0,1,.027-.007.022.022,0,0,1,.024.011c.01.027.02.057.03.082l.614,1.743c.04.117.078.239.124.341a.21.21,0,0,0,.22.132h.018Z" transform="translate(-20.39 -36.354)"/>
    </g>
  </g>
  <g id="Group_250" data-name="Group 250" transform="translate(13.46 21.454)">
    <g id="Group_249" data-name="Group 249">
      <path id="Path_534" data-name="Path 534" d="M22.727,38.709a.228.228,0,0,1-.234-.143c-.043-.1-.084-.226-.124-.343l-.613-1.743c-.011-.026-.02-.057-.03-.08,0,0,0,0-.005,0h0a.055.055,0,0,0-.018.005,1.311,1.311,0,0,1-.3.134,2.853,2.853,0,0,1-.124.416l-.533,1.529a.318.318,0,0,1-.3.228h-.005v.069c.114-.007.229-.014.346-.014s.26.007.387.014v-.069h-.022c-.108,0-.26-.014-.264-.132a1.315,1.315,0,0,1,.074-.264l.109-.358h.775l.135.4a1.02,1.02,0,0,1,.069.244c0,.1-.146.11-.221.113H21.8v.069c.165-.007.327-.014.485-.014s.3.007.445.014v-.069ZM21.119,37.8l.319-.972h.028l.317.972Z" transform="translate(-20.435 -36.396)"/>
    </g>
  </g>
  <g id="Group_252" data-name="Group 252" transform="translate(14.166 21.898)">
    <g id="Group_251" data-name="Group 251">
      <path id="Path_535" data-name="Path 535" d="M21.822,37.071h-.007v0l-.309.943h.622Zm0,.036.289.892h-.582Z" transform="translate(-21.506 -37.071)"/>
    </g>
  </g>
</svg>
