<svg xmlns="http://www.w3.org/2000/svg" width="11.278" height="20.859" viewBox="0 0 11.278 20.859">
  <g id="facebook-logo" transform="translate(-22.077)">
    <path id="Path_439" data-name="Path 439" d="M32.93,0l-2.7,0a4.75,4.75,0,0,0-5,5.134V7.5H22.5a.425.425,0,0,0-.425.426v3.429a.425.425,0,0,0,.425.425h2.72v8.653a.425.425,0,0,0,.425.425H29.2a.425.425,0,0,0,.425-.425V11.781H32.8a.425.425,0,0,0,.425-.425V7.926A.426.426,0,0,0,32.8,7.5H29.621V5.494c0-.964.23-1.454,1.486-1.454H32.93a.425.425,0,0,0,.425-.425V.43A.425.425,0,0,0,32.93,0Z"/>
  </g>
</svg>
