<svg xmlns="http://www.w3.org/2000/svg" width="33.377" height="20.861" viewBox="0 0 33.377 20.861">
  <g id="google-plus" transform="translate(0 -96)">
    <g id="Group_141" data-name="Group 141" transform="translate(22.947 100.172)">
      <g id="Group_140" data-name="Group 140">
        <path id="Path_442" data-name="Path 442" d="M358.258,164.172V160h-2.086v4.172H352v2.086h4.172v4.172h2.086v-4.172h4.172v-2.086Z" transform="translate(-352 -160)"/>
      </g>
    </g>
    <g id="Group_143" data-name="Group 143" transform="translate(0 96)">
      <g id="Group_142" data-name="Group 142">
        <path id="Path_443" data-name="Path 443" d="M10.43,104.344v4.172h5.9a6.259,6.259,0,1,1-5.9-8.344,6.165,6.165,0,0,1,4.053,1.51l2.741-3.146A10.337,10.337,0,0,0,10.43,96a10.43,10.43,0,1,0,10.43,10.43v-2.086Z" transform="translate(0 -96)"/>
      </g>
    </g>
  </g>
</svg>
