<svg id="instagram" xmlns="http://www.w3.org/2000/svg" width="21.736" height="21.736" viewBox="0 0 21.736 21.736">
  <g id="Group_135" data-name="Group 135">
    <g id="Group_134" data-name="Group 134">
      <path id="Path_440" data-name="Path 440" d="M14.944,0H6.793A6.793,6.793,0,0,0,0,6.793v8.151a6.793,6.793,0,0,0,6.793,6.793h8.151a6.793,6.793,0,0,0,6.793-6.793V6.793A6.793,6.793,0,0,0,14.944,0ZM19.7,14.944A4.76,4.76,0,0,1,14.944,19.7H6.793a4.76,4.76,0,0,1-4.755-4.755V6.793A4.76,4.76,0,0,1,6.793,2.038h8.151A4.76,4.76,0,0,1,19.7,6.793Z"/>
    </g>
  </g>
  <g id="Group_137" data-name="Group 137" transform="translate(5.434 5.434)">
    <g id="Group_136" data-name="Group 136">
      <path id="Path_441" data-name="Path 441" d="M133.434,128a5.434,5.434,0,1,0,5.434,5.434A5.434,5.434,0,0,0,133.434,128Zm0,8.83a3.4,3.4,0,1,1,3.4-3.4A3.4,3.4,0,0,1,133.434,136.83Z" transform="translate(-128 -128)"/>
    </g>
  </g>
  <g id="Group_139" data-name="Group 139" transform="translate(15.986 4.302)">
    <g id="Group_138" data-name="Group 138">
      <circle id="Ellipse_23" data-name="Ellipse 23" cx="0.724" cy="0.724" r="0.724"/>
    </g>
  </g>
</svg>
