<svg id="mastercard_1_" data-name="mastercard (1)" xmlns="http://www.w3.org/2000/svg" width="40.941" height="24.564" viewBox="0 0 40.941 24.564">
  <path id="Path_470" data-name="Path 470" d="M20.471,122.18a12.282,12.282,0,0,0-8.188-21.38,12.25,12.25,0,1,0,0,24.5,11.893,11.893,0,0,0,8.188-3.119Z" transform="translate(0 -100.8)" fill="#07a9e2"/>
  <path id="Path_471" data-name="Path 471" d="M0,113.082A12.259,12.259,0,0,0,12.282,125.3a11.831,11.831,0,0,0,8.188-3.184h0A12.25,12.25,0,0,0,12.282,100.8" transform="translate(0 -100.8)" fill="#009ddd"/>
  <path id="Path_472" data-name="Path 472" d="M81.477,103.984a12.259,12.259,0,0,0-8.188-3.184H72.7a15.1,15.1,0,0,0-.065,24.5h.585a11.831,11.831,0,0,0,8.188-3.184,12.28,12.28,0,0,0,.065-18.131Z" transform="translate(-61.006 -100.8)" fill="#0284cc"/>
  <path id="Path_473" data-name="Path 473" d="M217.622,100.8a12.111,12.111,0,0,0-8.253,3.184,11.682,11.682,0,0,0-1.235,1.3h2.47a9.29,9.29,0,0,1,.91,1.3H207.16a12.89,12.89,0,0,0-.715,1.3h5.784a10.848,10.848,0,0,1,.52,1.3H205.99c-.13.455-.26.845-.39,1.3h7.538a11.383,11.383,0,0,1,.26,2.6,11.167,11.167,0,0,1-.65,3.9H205.99a10.822,10.822,0,0,0,.52,1.3h5.784a8.324,8.324,0,0,1-.715,1.3h-4.354a9.287,9.287,0,0,0,.91,1.3h2.47a11.673,11.673,0,0,1-1.235,1.3,12.425,12.425,0,0,0,8.253,3.184,12.282,12.282,0,0,0,0-24.564Z" transform="translate(-188.899 -100.8)" fill="#ff2957"/>
  <path id="Path_474" data-name="Path 474" d="M217.622,100.8h0a12.111,12.111,0,0,0-8.253,3.184,11.682,11.682,0,0,0-1.235,1.3h2.47a9.29,9.29,0,0,1,.91,1.3H207.16a12.89,12.89,0,0,0-.715,1.3h5.784a10.848,10.848,0,0,1,.52,1.3H205.99c-.13.455-.26.845-.39,1.3h7.538a11.383,11.383,0,0,1,.26,2.6,11.167,11.167,0,0,1-.65,3.9H205.99a10.822,10.822,0,0,0,.52,1.3h5.784a8.324,8.324,0,0,1-.715,1.3h-4.354a9.287,9.287,0,0,0,.91,1.3h2.47a11.673,11.673,0,0,1-1.235,1.3,12.425,12.425,0,0,0,8.253,3.184,12.2,12.2,0,0,0,12.217-12.217" transform="translate(-188.899 -100.8)" fill="#ed1c2e"/>
  <path id="Path_475" data-name="Path 475" d="M252,158.2a12.286,12.286,0,0,0,0-18.2v18.2Z" transform="translate(-231.529 -136.816)" fill="#0466b5"/>
  <path id="Path_476" data-name="Path 476" d="M452,280.39a.39.39,0,1,1,.39.39.419.419,0,0,1-.39-.39Zm.39.325c.195,0,.26-.13.26-.325a.238.238,0,0,0-.26-.26.3.3,0,0,0-.325.26.417.417,0,0,0,.325.325Zm0-.195h-.065v-.325h.2l.065.065c0,.065,0,.065-.065.065l.065.13h-.065l-.065-.13h-.065v.2Zm0-.2h.065v-.065h-.065v.065Z" transform="translate(-415.283 -265.443)" fill="#fff"/>
  <path id="Path_477" data-name="Path 477" d="M209.369,105.348a11.676,11.676,0,0,0-1.235,1.3h2.47a9.288,9.288,0,0,1,.91,1.3H207.16a12.89,12.89,0,0,0-.715,1.3h5.784a10.848,10.848,0,0,1,.52,1.3H205.99c-.13.455-.26.845-.39,1.3h7.538a11.382,11.382,0,0,1,.26,2.6,11.167,11.167,0,0,1-.65,3.9H205.99a10.821,10.821,0,0,0,.52,1.3h5.784a8.325,8.325,0,0,1-.715,1.3h-4.354a9.287,9.287,0,0,0,.91,1.3h2.47a11.672,11.672,0,0,1-1.235,1.3,12.425,12.425,0,0,0,8.253,3.184h.585a15.082,15.082,0,0,0,0-24.434h-.585A11.706,11.706,0,0,0,209.369,105.348Z" transform="translate(-188.899 -102.164)" fill="#d1094b"/>
  <path id="Path_478" data-name="Path 478" d="M57.029,219.039h-1.56l.91-4.744-2.08,4.744H52.934l-.26-4.744-.91,4.744H50.4l1.17-6.239h2.4l.13,3.9,1.69-3.9h2.469Z" transform="translate(-46.306 -203.702)" fill="#fff"/>
  <g id="Group_155" data-name="Group 155" transform="translate(9.163 9.163)">
    <path id="Path_479" data-name="Path 479" d="M112.865,217.044l.91-2.014-.715,3.769a6.088,6.088,0,0,0,.26,1.04h1.04l1.17-6.239h-2.275a12.555,12.555,0,0,0-.455,3.184C112.865,216.849,112.865,216.914,112.865,217.044Z" transform="translate(-112.8 -213.6)" fill="#dce5e5"/>
    <path id="Path_480" data-name="Path 480" d="M315.875,219.709a3.6,3.6,0,0,1-1.1.195c-.78,0-1.17-.39-1.17-1.1a1.271,1.271,0,0,1,.065-.455l.065-.52.065-.39.715-3.834H316l-.195,1.17h.78l-.195,1.17h-.78l-.39,2.08a.654.654,0,0,1-.065.195c0,.26.2.39.52.39.195,0,.325,0,.39-.065l-.195,1.17Z" transform="translate(-297.289 -213.6)" fill="#dce5e5"/>
    <path id="Path_481" data-name="Path 481" d="M351.964,226.53c-.13-.065-.13-.065-.195-.065s-.13,0-.13-.065h-.2c-.52,0-.845.195-1.3.845l.13-.78H348.91l-.91,5.069h1.56c.52-3.119.78-3.639,1.495-3.639h.2l.195.065.52-1.43Z" transform="translate(-328.894 -225.36)" fill="#dce5e5"/>
    <path id="Path_482" data-name="Path 482" d="M260.585,228.09q0,.975,1.17,1.365c.65.26.715.325.715.585,0,.325-.26.455-.91.455a4.947,4.947,0,0,1-1.365-.195l-.195,1.17h.065l.26.065h.39a4.662,4.662,0,0,0,.845.065c1.625,0,2.4-.52,2.4-1.69,0-.715-.325-1.1-1.1-1.43-.65-.26-.715-.325-.715-.52q0-.39.78-.39a7.076,7.076,0,0,1,1.1.065l.2-1.17a9.6,9.6,0,0,0-1.365-.065c-1.69,0-2.274.78-2.274,1.69Z" transform="translate(-248.043 -225.36)" fill="#dce5e5"/>
    <path id="Path_483" data-name="Path 483" d="M145.024,230.8h-1.235v-.52a2.162,2.162,0,0,1-1.625.585A1.3,1.3,0,0,1,140.8,229.5c0-1.235.975-1.95,2.664-1.95h.65a.87.87,0,0,0,.065-.325c0-.325-.26-.455-.975-.455a6.55,6.55,0,0,0-1.235.13l-.195.065h-.13l.195-1.1a6.785,6.785,0,0,1,1.82-.26c1.3,0,2.015.52,2.015,1.495a3.9,3.9,0,0,1-.13,1.04l-.325,1.82-.065.325-.065.26v.195l-.065.065Zm-1.1-2.275h-.325c-.845,0-1.3.26-1.3.78a.478.478,0,0,0,.52.52,1.153,1.153,0,0,0,1.1-1.3Z" transform="translate(-138.526 -224.625)" fill="#dce5e5"/>
    <path id="Path_484" data-name="Path 484" d="M207.359,230.669a6.409,6.409,0,0,1-1.56.195c-1.69,0-2.6-.78-2.6-2.274a2.725,2.725,0,0,1,2.664-2.989,1.8,1.8,0,0,1,2.015,1.82,4.8,4.8,0,0,1-.195,1.235H204.63v.2c0,.585.455.91,1.3.91a3.21,3.21,0,0,0,1.56-.325l-.13,1.235Zm-.78-2.989v-.26a.634.634,0,0,0-.715-.65,1.029,1.029,0,0,0-.975.91Z" transform="translate(-195.857 -224.625)" fill="#dce5e5"/>
  </g>
  <g id="Group_156" data-name="Group 156" transform="translate(31.583 10.138)">
    <path id="Path_485" data-name="Path 485" d="M394.194,228.524a2.7,2.7,0,0,1-2.989,2.4,2.168,2.168,0,0,1-2.4-2.339,2.831,2.831,0,0,1,2.989-2.989,2.219,2.219,0,0,1,2.4,2.274v.65Zm-1.625-.65c0-.52-.195-.975-.845-.975-.78,0-1.235.91-1.235,1.755,0,.65.325,1.1.845,1.1a1.507,1.507,0,0,0,1.17-1.235,2.437,2.437,0,0,0,.065-.65Z" transform="translate(-388.8 -225.6)" fill="#fff"/>
    <path id="Path_486" data-name="Path 486" d="M389.049,251.96a10.623,10.623,0,0,0,.13-1.43v-.13a5.053,5.053,0,0,0-.13,1.04A.712.712,0,0,0,389.049,251.96Z" transform="translate(-388.984 -248.385)" fill="#fff"/>
  </g>
</svg>
