<svg id="mastercard" xmlns="http://www.w3.org/2000/svg" width="40.94" height="24.563" viewBox="0 0 40.94 24.563">
  <path id="Path_444" data-name="Path 444" d="M226.164,113.082a12.282,12.282,0,0,1-24.564,0h0a12.282,12.282,0,0,1,24.564,0Z" transform="translate(-185.224 -100.8)" fill="#ffb600"/>
  <path id="Path_445" data-name="Path 445" d="M213.882,100.8a12.314,12.314,0,0,1,12.282,12.282h0a12.282,12.282,0,0,1-24.564,0" transform="translate(-185.224 -100.8)" fill="#f7981d"/>
  <path id="Path_446" data-name="Path 446" d="M352.8,100.8a12.314,12.314,0,0,1,12.282,12.282h0A12.272,12.272,0,0,1,352.8,125.364" transform="translate(-324.142 -100.8)" fill="#ff8500"/>
  <path id="Path_447" data-name="Path 447" d="M12.152,100.8a12.282,12.282,0,0,0,.13,24.564,12.425,12.425,0,0,0,8.253-3.184h0a11.681,11.681,0,0,0,1.235-1.3H19.235a14.991,14.991,0,0,1-.91-1.235H22.68a8.325,8.325,0,0,0,.715-1.3H17.611a7.747,7.747,0,0,1-.52-1.3h6.758a12.9,12.9,0,0,0,.65-3.9,16.773,16.773,0,0,0-.26-2.6H16.7a9.5,9.5,0,0,1,.325-1.3h6.758a7.744,7.744,0,0,0-.52-1.3H17.546a12.885,12.885,0,0,1,.715-1.3h4.354a6.179,6.179,0,0,0-.975-1.3h-2.4a11.081,11.081,0,0,1,1.235-1.235,11.992,11.992,0,0,0-8.253-3.184C12.217,100.8,12.217,100.8,12.152,100.8Z" transform="translate(0 -100.8)" fill="#ff5050"/>
  <path id="Path_448" data-name="Path 448" d="M0,114.552a12.272,12.272,0,0,0,12.282,12.282,12.425,12.425,0,0,0,8.253-3.184h0a11.678,11.678,0,0,0,1.235-1.3H19.235a14.992,14.992,0,0,1-.91-1.235H22.68a8.325,8.325,0,0,0,.715-1.3H17.611a7.746,7.746,0,0,1-.52-1.3h6.758a12.9,12.9,0,0,0,.65-3.9,16.773,16.773,0,0,0-.26-2.6H16.7a9.5,9.5,0,0,1,.325-1.3h6.758a7.744,7.744,0,0,0-.52-1.3H17.546a12.885,12.885,0,0,1,.715-1.3h4.354a6.179,6.179,0,0,0-.975-1.3h-2.4a11.075,11.075,0,0,1,1.235-1.235,11.992,11.992,0,0,0-8.253-3.184h-.065" transform="translate(0 -102.27)" fill="#e52836"/>
  <path id="Path_449" data-name="Path 449" d="M149.73,126.834a12.425,12.425,0,0,0,8.253-3.184h0a11.681,11.681,0,0,0,1.235-1.3h-2.534a15.008,15.008,0,0,1-.91-1.235h4.354a8.323,8.323,0,0,0,.715-1.3h-5.784a7.743,7.743,0,0,1-.52-1.3H161.3a12.9,12.9,0,0,0,.65-3.9,16.774,16.774,0,0,0-.26-2.6h-7.538a9.5,9.5,0,0,1,.325-1.3h6.758a7.747,7.747,0,0,0-.52-1.3h-5.719a12.882,12.882,0,0,1,.715-1.3h4.354a6.181,6.181,0,0,0-.975-1.3h-2.4a11.077,11.077,0,0,1,1.235-1.235,11.992,11.992,0,0,0-8.253-3.184H149.6" transform="translate(-137.448 -102.27)" fill="#cb2026"/>
  <g id="Group_153" data-name="Group 153" transform="translate(1.17 9.098)">
    <path id="Path_450" data-name="Path 450" d="M183.485,225.719l.195-1.1a2.812,2.812,0,0,1-.325.065c-.455,0-.52-.26-.455-.39l.39-2.274H184l.195-1.235h-.65l.13-.78h-1.3s-.78,4.289-.78,4.809a.976.976,0,0,0,1.04,1.1A2,2,0,0,0,183.485,225.719Z" transform="translate(-168.018 -219.415)" fill="#fff"/>
    <path id="Path_451" data-name="Path 451" d="M210.4,231.631a2.067,2.067,0,0,0,2.274,2.274,3.374,3.374,0,0,0,1.365-.195l.26-1.235a3.9,3.9,0,0,1-1.365.325c-1.43,0-1.17-1.04-1.17-1.04h2.664a8.425,8.425,0,0,0,.195-1.17,1.761,1.761,0,0,0-1.885-1.885C211.375,228.577,210.4,230.007,210.4,231.631Zm2.274-1.884c.715,0,.585.845.585.91h-1.43C211.83,230.592,211.96,229.747,212.674,229.747Z" transform="translate(-194.479 -227.407)" fill="#fff"/>
    <path id="Path_452" data-name="Path 452" d="M299.574,219.1l.26-1.43a3.194,3.194,0,0,1-1.1.325c-.91,0-1.3-.715-1.3-1.495,0-1.56.78-2.4,1.69-2.4a2.17,2.17,0,0,1,1.17.39l.195-1.365a4.569,4.569,0,0,0-1.495-.325c-1.495,0-2.989,1.3-2.989,3.769,0,1.625.78,2.729,2.339,2.729A5.832,5.832,0,0,0,299.574,219.1Z" transform="translate(-273.126 -212.8)" fill="#fff"/>
    <path id="Path_453" data-name="Path 453" d="M88.869,227.2a4.6,4.6,0,0,0-1.56.26l-.195,1.1a3.841,3.841,0,0,1,1.43-.26c.455,0,.845.065.845.455,0,.26-.065.325-.065.325h-.585c-1.1,0-2.339.455-2.339,1.949,0,1.17.78,1.43,1.235,1.43A1.952,1.952,0,0,0,89,231.879l-.065.52H90.1l.52-3.574A1.54,1.54,0,0,0,88.869,227.2Zm.26,2.924c0,.195-.13,1.235-.91,1.235a.507.507,0,0,1-.52-.52c0-.325.195-.78,1.17-.78A1.025,1.025,0,0,0,89.129,230.124Z" transform="translate(-80.551 -226.03)" fill="#fff"/>
    <path id="Path_454" data-name="Path 454" d="M136.695,231.729a1.666,1.666,0,0,0,1.95-1.69c0-1.625-1.56-1.3-1.56-1.949,0-.325.26-.455.715-.455.195,0,.91.065.91.065l.195-1.17a4.938,4.938,0,0,0-1.235-.13c-.975,0-1.95.39-1.95,1.69,0,1.495,1.625,1.365,1.625,1.949,0,.39-.455.455-.78.455a4.249,4.249,0,0,1-1.17-.195l-.195,1.17C135.265,231.6,135.59,231.729,136.695,231.729Z" transform="translate(-125.387 -225.295)" fill="#fff"/>
    <path id="Path_455" data-name="Path 455" d="M430.9,214.4l-.26,1.755a1.8,1.8,0,0,0-1.235-.65c-1.17,0-2.21,1.43-2.21,3.119,0,1.04.52,2.144,1.625,2.144a1.735,1.735,0,0,0,1.235-.52l-.065.455h1.3l.975-6.238Zm-.585,3.444c0,.715-.325,1.625-1.04,1.625-.455,0-.715-.39-.715-1.04,0-1.04.455-1.69,1.04-1.69C430.059,216.739,430.319,217.064,430.319,217.844Z" transform="translate(-393.668 -214.27)" fill="#fff"/>
    <path id="Path_456" data-name="Path 456" d="M15.635,220.638l.78-4.679.13,4.679h.91l1.69-4.679-.715,4.679h1.365l1.04-6.238H18.689l-1.3,3.834-.065-3.834H15.44l-1.04,6.238Z" transform="translate(-14.4 -214.27)" fill="#fff"/>
    <path id="Path_457" data-name="Path 457" d="M261.43,233.869c.39-2.144.455-3.9,1.365-3.574a5.1,5.1,0,0,1,.455-1.495h-.26c-.585,0-1.04.78-1.04.78l.13-.715h-1.235L260,233.934h1.43Z" transform="translate(-240.05 -227.5)" fill="#fff"/>
    <path id="Path_458" data-name="Path 458" d="M348.869,227.2a4.6,4.6,0,0,0-1.56.26l-.2,1.1a3.841,3.841,0,0,1,1.43-.26c.455,0,.845.065.845.455,0,.26-.065.325-.065.325h-.585c-1.1,0-2.339.455-2.339,1.949,0,1.17.78,1.43,1.235,1.43a1.953,1.953,0,0,0,1.365-.585l-.065.52h1.17l.52-3.574A1.517,1.517,0,0,0,348.869,227.2Zm.325,2.924c0,.195-.13,1.235-.91,1.235a.507.507,0,0,1-.52-.52c0-.325.195-.78,1.17-.78C349.129,230.124,349.129,230.124,349.194,230.124Z" transform="translate(-319.432 -226.03)" fill="#fff"/>
    <path id="Path_459" data-name="Path 459" d="M395.83,233.869c.39-2.144.455-3.9,1.365-3.574a5.1,5.1,0,0,1,.455-1.495h-.26c-.585,0-1.04.78-1.04.78l.13-.715h-1.235l-.845,5.069h1.43Z" transform="translate(-363.533 -227.5)" fill="#fff"/>
  </g>
  <g id="Group_154" data-name="Group 154" transform="translate(1.17 9.098)">
    <path id="Path_460" data-name="Path 460" d="M180,224.809a.975.975,0,0,0,1.04,1.1,2.473,2.473,0,0,0,.975-.195l.195-1.1a2.816,2.816,0,0,1-.325.065c-.455,0-.52-.26-.455-.39l.39-2.274h.715l.195-1.235h-.65l.13-.78" transform="translate(-166.548 -219.415)" fill="#dce5e5"/>
    <path id="Path_461" data-name="Path 461" d="M218.4,231.631c0,1.819.585,2.274,1.625,2.274a3.374,3.374,0,0,0,1.365-.195l.26-1.235a3.9,3.9,0,0,1-1.365.325c-1.43,0-1.17-1.04-1.17-1.04h2.664a8.426,8.426,0,0,0,.195-1.17,1.761,1.761,0,0,0-1.885-1.885C218.725,228.577,218.4,230.007,218.4,231.631Zm1.625-1.884c.715,0,.845.845.845.91h-1.69C219.18,230.592,219.31,229.747,220.025,229.747Z" transform="translate(-201.829 -227.407)" fill="#dce5e5"/>
    <path id="Path_462" data-name="Path 462" d="M306.924,219.1l.26-1.43a3.194,3.194,0,0,1-1.1.325c-.91,0-1.3-.715-1.3-1.495,0-1.56.78-2.4,1.69-2.4a2.17,2.17,0,0,1,1.17.39l.195-1.365a4.569,4.569,0,0,0-1.495-.325c-1.495,0-2.34,1.3-2.34,3.769,0,1.625.13,2.729,1.69,2.729A5.834,5.834,0,0,0,306.924,219.1Z" transform="translate(-280.476 -212.8)" fill="#dce5e5"/>
    <path id="Path_463" data-name="Path 463" d="M87.115,230.1a3.842,3.842,0,0,1,1.43-.26c.455,0,.845.065.845.455,0,.26-.065.325-.065.325h-.585c-1.1,0-2.339.455-2.339,1.949,0,1.17.78,1.43,1.235,1.43A1.952,1.952,0,0,0,89,233.414l-.065.52H90.1l.52-3.574c0-1.495-1.3-1.56-1.82-1.56m.975,2.794a2.128,2.128,0,0,1-1.56,1.235.507.507,0,0,1-.52-.52c0-.325.195-.78,1.17-.78A5.308,5.308,0,0,0,89.779,231.594Z" transform="translate(-80.551 -227.5)" fill="#dce5e5"/>
    <path id="Path_464" data-name="Path 464" d="M136,231.6a5.5,5.5,0,0,0,1.495.13,1.666,1.666,0,0,0,1.95-1.69c0-1.625-1.56-1.3-1.56-1.949,0-.325.26-.455.715-.455.195,0,.91.065.91.065l.195-1.17a4.938,4.938,0,0,0-1.235-.13c-.975,0-1.3.39-1.3,1.69,0,1.495.975,1.365.975,1.949,0,.39-.455.455-.78.455" transform="translate(-126.122 -225.295)" fill="#dce5e5"/>
    <path id="Path_465" data-name="Path 465" d="M437.941,216.89a1.8,1.8,0,0,0-1.235-.65c-1.17,0-1.56,1.43-1.56,3.119,0,1.04-.13,2.144.975,2.144a1.735,1.735,0,0,0,1.235-.52l-.065.455h1.3l.975-6.238m-1.69,3.379c0,.715-.585,1.625-1.3,1.625-.455,0-.715-.39-.715-1.04,0-1.04.455-1.69,1.04-1.69A.993.993,0,0,1,437.876,218.579Z" transform="translate(-400.965 -215.005)" fill="#dce5e5"/>
    <path id="Path_466" data-name="Path 466" d="M15.635,220.638l.78-4.679.13,4.679h.91l1.69-4.679-.715,4.679h1.365l1.04-6.238H19.209l-1.82,3.834-.065-3.834h-.715L14.4,220.638Z" transform="translate(-14.4 -214.27)" fill="#dce5e5"/>
    <path id="Path_467" data-name="Path 467" d="M260.8,233.869h1.365c.39-2.144.455-3.9,1.365-3.574a5.1,5.1,0,0,1,.455-1.495h-.26c-.585,0-1.04.78-1.04.78l.13-.715" transform="translate(-240.785 -227.5)" fill="#dce5e5"/>
    <path id="Path_468" data-name="Path 468" d="M347.115,230.1a3.843,3.843,0,0,1,1.43-.26c.455,0,.845.065.845.455,0,.26-.065.325-.065.325h-.585c-1.1,0-2.339.455-2.339,1.949,0,1.17.78,1.43,1.235,1.43a1.952,1.952,0,0,0,1.365-.585l-.065.52h1.17l.52-3.574c0-1.495-1.3-1.56-1.82-1.56m.975,2.794a2.128,2.128,0,0,1-1.56,1.235.507.507,0,0,1-.52-.52c0-.325.195-.78,1.17-.78A5.715,5.715,0,0,0,349.779,231.594Z" transform="translate(-319.432 -227.5)" fill="#dce5e5"/>
    <path id="Path_469" data-name="Path 469" d="M395.2,233.869h1.365c.39-2.144.455-3.9,1.365-3.574a5.1,5.1,0,0,1,.455-1.495h-.26c-.585,0-1.04.78-1.04.78l.13-.715" transform="translate(-364.267 -227.5)" fill="#dce5e5"/>
  </g>
</svg>
