<svg xmlns="http://www.w3.org/2000/svg" width="59.515" height="21.16" viewBox="0 0 59.515 21.16">
  <g id="MasterCard_SecureCode" transform="translate(0)">
    <g id="Group_256" data-name="Group 256" transform="translate(0.361 0)">
      <g id="Group_255" data-name="Group 255" transform="translate(55.896 7.13)">
        <path id="Path_550" data-name="Path 550" d="M338.787,48.984a1.121,1.121,0,1,1,1.12,1.178,1.151,1.151,0,0,1-1.12-1.178Zm1.121.9a.9.9,0,1,0-.855-.9.88.88,0,0,0,.855.9Zm-.152-.383h-.229V48.463h.416a.428.428,0,0,1,.252.057.322.322,0,0,1,.125.261.276.276,0,0,1-.169.261l.18.458h-.255l-.152-.406h-.168V49.5Zm0-.583h.128a.286.286,0,0,0,.141-.022.143.143,0,0,0,.056-.12.126.126,0,0,0-.056-.1.3.3,0,0,0-.143-.018h-.125v.264Z" transform="translate(-338.787 -47.807)" fill="#ec2127" fill-rule="evenodd"/>
      </g>
      <path id="Path_551" data-name="Path 551" d="M213.541,6.235l-.307,2a3.425,3.425,0,0,0-1.678-.493c-1.4,0-2.382,1.418-2.382,3.444,0,1.4.663,2.241,1.752,2.241a3.459,3.459,0,0,0,1.592-.474l-.327,2.1a5.559,5.559,0,0,1-1.657.268c-2.021,0-3.278-1.525-3.278-3.972,0-3.292,1.737-5.59,4.222-5.59a3.089,3.089,0,0,1,.841.1l.773.2c.23.091.282.1.45.178Z" transform="translate(-173.663 -5.756)" fill="#ec2127" fill-rule="evenodd"/>
      <path id="Path_552" data-name="Path 552" d="M186.014,16.557a1.031,1.031,0,0,0-.192-.019c-.618,0-.967.327-1.54,1.218l.167-1.137h-1.7L181.6,24.1h1.884c.674-4.574.846-5.364,1.749-5.364a.968.968,0,0,1,.137.008,7.451,7.451,0,0,1,.709-2.169l-.064-.02Z" transform="translate(-152.358 -14.71)" fill="#ec2127" fill-rule="evenodd"/>
      <path id="Path_553" data-name="Path 553" d="M127.623,18.97a4.091,4.091,0,0,1-1.345.247c-.957,0-1.479-.583-1.479-1.646a4.267,4.267,0,0,1,.053-.671l.116-.73.086-.6.813-5.106h1.863l-.214,1.11h.959l-.263,1.819h-.957l-.5,3.123c-.017.138-.031.24-.031.31,0,.383.2.554.639.554a1.446,1.446,0,0,0,.5-.07l-.25,1.655Z" transform="translate(-105.189 -9.669)" fill="#ec2127" fill-rule="evenodd"/>
      <path id="Path_554" data-name="Path 554" d="M94.388,18.583a2.178,2.178,0,0,0,1.421,2.086c.755.375.874.485.874.825,0,.465-.335.68-1.073.68a4.963,4.963,0,0,1-1.676-.3L93.675,23.6l.085.018.344.073c.111.024.274.045.489.068.447.042.79.062,1.032.062,1.966,0,2.876-.794,2.876-2.5a2.051,2.051,0,0,0-1.316-2.083c-.782-.373-.871-.46-.871-.808,0-.406.31-.615.912-.615a10.26,10.26,0,0,1,1.341.111l.267-1.728a11.7,11.7,0,0,0-1.645-.148c-2.086,0-2.81,1.148-2.8,2.53Z" transform="translate(-79.343 -14.307)" fill="#ec2127" fill-rule="evenodd"/>
      <path id="Path_555" data-name="Path 555" d="M304.542,16.08h-1.774l.093-.733a2.177,2.177,0,0,1-1.732.832c-1.371,0-2.269-1.235-2.269-3.106,0-2.489,1.4-4.591,3.054-4.591a2.111,2.111,0,0,1,1.8,1.025l.408-2.629h1.848l-1.425,9.2Zm-2.767-1.762c.876,0,1.488-1.04,1.488-2.521,0-.951-.349-1.469-1-1.469-.849,0-1.453,1.044-1.453,2.517,0,.98.325,1.473.962,1.473Z" transform="translate(-249.735 -6.687)" fill="#ec2127" fill-rule="evenodd"/>
      <path id="Path_556" data-name="Path 556" d="M151.449,23.422a6.207,6.207,0,0,1-1.926.3c-2.09,0-3.182-1.15-3.182-3.35,0-2.572,1.389-4.465,3.278-4.465a2.46,2.46,0,0,1,2.529,2.724,8.235,8.235,0,0,1-.233,1.846h-3.727a1.489,1.489,0,0,0-.018.232c0,.875.558,1.315,1.648,1.315a4.227,4.227,0,0,0,1.944-.476l-.313,1.873ZM150.4,18.966c.011-.156.013-.284.013-.379a.852.852,0,0,0-.888-.969c-.595,0-1.02.477-1.2,1.342l2.069.005Z" transform="translate(-123.078 -14.187)" fill="#ec2127" fill-rule="evenodd"/>
      <path id="Path_557" data-name="Path 557" d="M16.673,16.079H14.8l1.073-7.072-2.4,7.072H12.193l-.155-7.03-1.13,7.03H9.154l1.463-9.2h2.7l.074,5.695,1.822-5.695h2.913Z" transform="translate(-9.154 -6.686)" fill="#ec2127" fill-rule="evenodd"/>
      <path id="Path_558" data-name="Path 558" d="M63.179,20.341a3.134,3.134,0,0,0-.42-.032c-1.062,0-1.6.386-1.6,1.142a.675.675,0,0,0,.674.763c.762,0,1.315-.763,1.346-1.873Zm1.363,3.333H62.99l.034-.777a2.288,2.288,0,0,1-1.964.907,1.807,1.807,0,0,1-1.715-2.039c0-1.827,1.216-2.888,3.294-2.888a5.7,5.7,0,0,1,.762.055,1.936,1.936,0,0,0,.074-.486c0-.494-.326-.682-1.2-.682a5.631,5.631,0,0,0-1.559.214l-.261.075-.164.048.258-1.678a7.109,7.109,0,0,1,2.247-.4c1.611,0,2.464.76,2.464,2.194A8.894,8.894,0,0,1,65.1,19.7l-.392,2.652-.064.479-.048.381-.033.261-.023.2Z" transform="translate(-50.834 -14.282)" fill="#ec2127" fill-rule="evenodd"/>
      <path id="Path_559" data-name="Path 559" d="M244.581,20.341a3.093,3.093,0,0,0-.416-.032c-1.066,0-1.606.386-1.606,1.142a.677.677,0,0,0,.677.763c.766,0,1.312-.763,1.346-1.873Zm1.365,3.333h-1.554l.036-.777a2.289,2.289,0,0,1-1.964.907,1.809,1.809,0,0,1-1.718-2.039c0-1.827,1.215-2.888,3.3-2.888a5.684,5.684,0,0,1,.762.055,1.986,1.986,0,0,0,.074-.486c0-.494-.326-.682-1.2-.682a5.58,5.58,0,0,0-1.556.214l-.267.075-.162.048.261-1.678a7.109,7.109,0,0,1,2.241-.4c1.613,0,2.467.76,2.467,2.194a9.59,9.59,0,0,1-.154,1.485l-.4,2.652-.058.479-.052.381-.034.261-.021.2Z" transform="translate(-201.475 -14.282)" fill="#ec2127" fill-rule="evenodd"/>
      <path id="Path_560" data-name="Path 560" d="M280.707,16.557a.936.936,0,0,0-.189-.019c-.615,0-.967.327-1.543,1.218l.167-1.137h-1.7L276.3,24.1h1.877c.674-4.574.851-5.364,1.748-5.364a.485.485,0,0,1,.131.008,7.533,7.533,0,0,1,.714-2.169l-.064-.02Z" transform="translate(-231 -14.71)" fill="#ec2127" fill-rule="evenodd"/>
    </g>
    <g id="Group_258" data-name="Group 258" transform="translate(0 11.428)">
      <path id="Path_561" data-name="Path 561" d="M235.523,87.68c0,1.7-.525,2.7-1.353,2.7-.6.019-.971-.655-.971-1.662,0-1.191.535-2.542,1.394-2.542.69,0,.929.732.929,1.509Zm1.844.031c0-1.886-.932-3.354-2.683-3.354-2.016,0-3.322,1.785-3.322,4.412,0,1.881.772,3.419,2.681,3.419,1.926,0,3.324-1.364,3.324-4.478Z" transform="translate(-193.321 -82.458)" fill="#f89620" fill-rule="evenodd"/>
      <path id="Path_562" data-name="Path 562" d="M206.152,74.191l-.287,1.994a3.075,3.075,0,0,0-1.567-.5c-1.31,0-2.225,1.425-2.225,3.45,0,1.4.613,2.244,1.633,2.244a3.059,3.059,0,0,0,1.489-.475l-.3,2.1a4.9,4.9,0,0,1-1.552.268c-1.887,0-3.062-1.525-3.062-3.973,0-3.293,1.622-5.592,3.946-5.592a2.983,2.983,0,0,1,.787.1l.717.2c.221.088.267.1.423.18Z" transform="translate(-167.509 -73.615)" fill="#f89620" fill-rule="evenodd"/>
      <path id="Path_563" data-name="Path 563" d="M146.411,84.531a.687.687,0,0,0-.18-.021c-.568,0-.9.328-1.435,1.217l.155-1.135h-1.585l-1.07,7.484h1.75c.63-4.578.8-5.366,1.636-5.366a.778.778,0,0,1,.128.008,7.89,7.89,0,0,1,.665-2.174l-.064-.013Z" transform="translate(-119.359 -82.584)" fill="#f89620" fill-rule="evenodd"/>
      <path id="Path_564" data-name="Path 564" d="M275.4,83.6h-1.654l.085-.73a2,2,0,0,1-1.622.831c-1.275,0-2.117-1.237-2.117-3.108,0-2.485,1.307-4.593,2.852-4.593a1.942,1.942,0,0,1,1.677,1.031L275,74.4h1.723L275.4,83.6Zm-2.588-1.76c.824,0,1.393-1.039,1.393-2.522,0-.954-.325-1.466-.927-1.466-.8,0-1.362,1.04-1.362,2.518,0,.975.3,1.47.9,1.47Z" transform="translate(-225.481 -74.187)" fill="#f89620" fill-rule="evenodd"/>
      <path id="Path_565" data-name="Path 565" d="M46.415,91.7a5.387,5.387,0,0,1-1.793.3c-1.955,0-2.975-1.153-2.975-3.351,0-2.568,1.3-4.463,3.06-4.463,1.443,0,2.363,1.059,2.363,2.722a9.175,9.175,0,0,1-.212,1.847H43.368a2.318,2.318,0,0,0-.014.232c0,.873.523,1.313,1.538,1.313a3.765,3.765,0,0,0,1.818-.474L46.415,91.7Zm-.979-4.453c.008-.158.013-.284.013-.38,0-.61-.307-.967-.828-.967-.559,0-.957.48-1.117,1.34l1.931.008Z" transform="translate(-35.776 -82.316)" fill="#f89620" fill-rule="evenodd"/>
      <path id="Path_566" data-name="Path 566" d="M169.189,91.7a5.41,5.41,0,0,1-1.794.3c-1.959,0-2.978-1.153-2.978-3.351,0-2.568,1.3-4.463,3.06-4.463,1.443,0,2.366,1.059,2.366,2.722a8.881,8.881,0,0,1-.22,1.847h-3.481c-.011.112-.017.167-.017.232,0,.873.521,1.313,1.536,1.313a3.772,3.772,0,0,0,1.82-.474l-.292,1.869Zm-.984-4.453c.012-.158.018-.284.018-.38,0-.61-.31-.967-.828-.967-.559,0-.956.48-1.118,1.34l1.928.008Z" transform="translate(-137.728 -82.316)" fill="#f89620" fill-rule="evenodd"/>
      <path id="Path_567" data-name="Path 567" d="M313.222,91.7a5.45,5.45,0,0,1-1.8.3c-1.955,0-2.978-1.153-2.978-3.351,0-2.568,1.3-4.463,3.062-4.463,1.443,0,2.362,1.059,2.362,2.722a8.824,8.824,0,0,1-.215,1.847H310.17a1.917,1.917,0,0,0-.015.232c0,.873.523,1.313,1.538,1.313a3.772,3.772,0,0,0,1.819-.474l-.291,1.869Zm-.984-4.453c.008-.158.013-.284.013-.38,0-.61-.306-.967-.827-.967-.559,0-.955.48-1.117,1.34l1.932.008Z" transform="translate(-257.334 -82.316)" fill="#f89620" fill-rule="evenodd"/>
      <path id="Path_568" data-name="Path 568" d="M12.483,75.438a2.538,2.538,0,0,0-1.462-.429c-.708,0-1.277.147-1.277.9,0,1.33,2.58.833,2.58,3.68A2.943,2.943,0,0,1,9.08,82.854a5.448,5.448,0,0,1-2.055-.485l.418-1.906A2.711,2.711,0,0,0,9.08,81c.551,0,1.415-.151,1.415-1.113,0-1.507-2.579-.946-2.579-3.591,0-2.419,1.506-3.144,2.96-3.144a3.951,3.951,0,0,1,2.038.42l-.432,1.865Z" transform="translate(-7.025 -73.153)" fill="#f89620" fill-rule="evenodd"/>
      <path id="Path_569" data-name="Path 569" d="M80.239,91.81a3.52,3.52,0,0,1-1.555.288c-1.53,0-2.479-1.529-2.479-3.391,0-2.437,1.372-4.38,3.392-4.38a3.7,3.7,0,0,1,1.643.5l-.387,1.787a2.149,2.149,0,0,0-1.169-.4c-.936,0-1.6.858-1.6,2.394,0,.885.485,1.611,1.251,1.611a2.107,2.107,0,0,0,1.169-.326l-.262,1.922Z" transform="translate(-64.475 -82.432)" fill="#f89620" fill-rule="evenodd"/>
      <path id="Path_570" data-name="Path 570" d="M111.952,90.545c-.09.644-.173,1.269-.223,1.941h-1.685l.142-1.21h-.017a2.353,2.353,0,0,1-2.028,1.382c-1.058,0-1.631-1.113-1.631-2.567a9.441,9.441,0,0,1,.143-1.566l.477-3.464h1.875l-.5,3.474a8.288,8.288,0,0,0-.122,1.129c0,.438.2.881.705.854.769,0,1.222-.94,1.351-2.037l.518-3.42h1.815l-.817,5.485Z" transform="translate(-89.64 -83.041)" fill="#f89620" fill-rule="evenodd"/>
      <g id="Group_257" data-name="Group 257" transform="translate(56.941 7.847)">
        <path id="Path_571" data-name="Path 571" d="M343.518,120.936h-.284v-1.241h-.41v-.266h1.1v.266h-.41Z" transform="translate(-342.824 -119.429)" fill="#f89620" fill-rule="evenodd"/>
        <path id="Path_572" data-name="Path 572" d="M351.561,120.936H351.3v-1.26h0l-.253,1.26h-.278l-.247-1.26h0v1.26h-.264v-1.507h.413l.246,1.188h0l.242-1.188h.41Z" transform="translate(-348.987 -119.429)" fill="#f89620" fill-rule="evenodd"/>
      </g>
    </g>
  </g>
</svg>
