<svg xmlns="http://www.w3.org/2000/svg" width="79.294" height="30.605" viewBox="0 0 79.294 30.605">
  <g id="norton-by-symantec-vector-logo" transform="translate(-14.7 -206)">
    <path id="Path_608" data-name="Path 608" d="M494.725,289.688a2.263,2.263,0,1,1,2.263-2.263,2.268,2.268,0,0,1-2.263,2.263m0-6.688a4.425,4.425,0,1,0,4.425,4.425A4.428,4.428,0,0,0,494.725,283" transform="translate(-415.125 -67.209)"/>
    <path id="Path_609" data-name="Path 609" d="M334.925,289.688a2.263,2.263,0,1,1,2.263-2.263,2.268,2.268,0,0,1-2.263,2.263m0-6.688a4.425,4.425,0,1,0,4.425,4.425A4.428,4.428,0,0,0,334.925,283" transform="translate(-275.644 -67.209)"/>
    <path id="Path_610" data-name="Path 610" d="M415.828,274.628a5,5,0,0,1-.865.165c-.763,0-.916-.267-.916-.979V269.72h1.806v-1.7h-1.806V265.6h-2.034l-.432,2.416h-1.526a2.91,2.91,0,0,0-2.594,1.818l-.7-1.818H405.3V276.5h2.492V272.81c0-1.856,1.106-3.052,2.4-3.09h1.361v4.222c0,1.984,1.017,2.721,2.67,2.721a6.147,6.147,0,0,0,1.907-.305Z" transform="translate(-340.933 -52.022)"/>
    <path id="Path_611" data-name="Path 611" d="M567.029,287.183v5.811H564.6V284.5h1.475l.5,1.3" transform="translate(-479.977 -68.518)"/>
    <path id="Path_612" data-name="Path 612" d="M580,284.5a3.927,3.927,0,0,1,2.925-1.5,2.834,2.834,0,0,1,2.848,3.1v5.582h-2.492v-5.506a1.155,1.155,0,0,0-1.259-1.119,2.073,2.073,0,0,0-1.539.827" transform="translate(-493.419 -67.209)"/>
    <path id="Path_613" data-name="Path 613" d="M254.4,260.4h2.785L261,267.661V260.4h2.3v11.558h-2.518l-4.082-8v8h-2.3Z" transform="translate(-209.221 -47.483)"/>
    <path id="Path_614" data-name="Path 614" d="M625.4,284.6v.165h.229v.8h.191v-.8h.242V284.6Z" transform="translate(-533.046 -68.606)"/>
    <path id="Path_615" data-name="Path 615" d="M632.2,284.6l-.165.636-.178-.636H631.6v.966h.165V284.8h0l.2.763h.127l.2-.763h0v.763h.153V284.6Z" transform="translate(-538.458 -68.606)"/>
    <path id="Path_616" data-name="Path 616" d="M257.937,377.493c0-.737-.229-1.6-1.068-1.6a1.468,1.468,0,0,0-1.068.509v2.429a1.222,1.222,0,0,0,.966.483c.75-.013,1.17-.661,1.17-1.818m-2.3,1.806-.178.547H255V373.5h.8v2.314a1.72,1.72,0,0,1,1.246-.6c1.208,0,1.742,1.2,1.742,2.276,0,1.45-.75,2.429-1.869,2.429a1.544,1.544,0,0,1-1.284-.623" transform="translate(-209.745 -146.202)" fill="#a0a0a0"/>
    <path id="Path_617" data-name="Path 617" d="M288.8,387.7h.814s1.144,3.827,1.144,3.84l1.068-3.84h.788l-1.526,4.883a1.559,1.559,0,0,1-1.589,1.31,2.026,2.026,0,0,1-.547-.076l.1-.572a2.785,2.785,0,0,0,.381.051.978.978,0,0,0,1-.776Z" transform="translate(-239.247 -158.596)" fill="#a0a0a0"/>
    <path id="Path_618" data-name="Path 618" d="M337.5,378.4l.394-.559a2.879,2.879,0,0,0,1.793.61c.827,0,1.31-.394,1.31-1.081,0-.763-.585-1-1.424-1.3-.9-.318-1.729-.725-1.729-1.882,0-1.03.814-1.589,1.882-1.589a3.1,3.1,0,0,1,1.7.407l-.331.61a2.727,2.727,0,0,0-1.386-.343c-.674,0-1.132.267-1.132.9,0,.674.445.89,1.373,1.221.89.305,1.831.7,1.831,1.945,0,1.106-.788,1.767-2.085,1.767a3.22,3.22,0,0,1-2.2-.712" transform="translate(-281.754 -145.416)" fill="#a0a0a0"/>
    <path id="Path_619" data-name="Path 619" d="M374.8,387.7h.814s1.144,3.827,1.144,3.84l1.068-3.84h.788l-1.526,4.883a1.559,1.559,0,0,1-1.589,1.31,2.026,2.026,0,0,1-.547-.076l.1-.572a2.784,2.784,0,0,0,.381.051.978.978,0,0,0,1-.776Z" transform="translate(-314.311 -158.596)" fill="#a0a0a0"/>
    <path id="Path_620" data-name="Path 620" d="M416.107,387c.916,0,1.157.776,1.157,1.526v3.1h-.8v-3.1c0-.445-.076-.852-.623-.852a1.759,1.759,0,0,0-1.157.623v3.331h-.8v-3.1c0-.445-.076-.852-.623-.852a1.811,1.811,0,0,0-1.157.636v3.319h-.8v-4.539h.47l.2.738a2.152,2.152,0,0,1,1.539-.827,1.026,1.026,0,0,1,1.043.788,2.133,2.133,0,0,1,1.551-.788" transform="translate(-346.17 -157.985)" fill="#a0a0a0"/>
    <path id="Path_621" data-name="Path 621" d="M468.97,389.289a3.152,3.152,0,0,0-1.717.636.637.637,0,0,0-.14.458.62.62,0,0,0,.7.7,2.007,2.007,0,0,0,1.157-.445Zm0-.725c0-.61-.191-.916-.852-.916a2.9,2.9,0,0,0-1.3.394l-.292-.534a2.986,2.986,0,0,1,1.64-.509c1.132,0,1.577.61,1.577,1.628v3.014h-.458l-.2-.547a2.018,2.018,0,0,1-1.4.61,1.265,1.265,0,0,1-1.386-1.259,1.19,1.19,0,0,1,.61-1.106,5.982,5.982,0,0,1,2.06-.572Z" transform="translate(-394.177 -157.985)" fill="#a0a0a0"/>
    <path id="Path_622" data-name="Path 622" d="M503.9,387.089h.47l.2.75A2.191,2.191,0,0,1,506.2,387c.979,0,1.233.776,1.233,1.526v3.1h-.8v-3.1c0-.445-.114-.852-.7-.852a1.851,1.851,0,0,0-1.233.648v3.306h-.8v-4.539Z" transform="translate(-426.996 -157.985)" fill="#a0a0a0"/>
    <path id="Path_623" data-name="Path 623" d="M538.4,379.356V378.8h.7l.2-1.3h.572v1.3h1.017v.559h-1.017v2.8c0,.42.076.648.509.648a2.036,2.036,0,0,0,.521-.089l.115.547a2,2,0,0,1-.737.14c-.827,0-1.2-.394-1.2-1.208v-2.848H538.4Z" transform="translate(-457.109 -149.693)" fill="#a0a0a0"/>
    <path id="Path_624" data-name="Path 624" d="M566.361,389.047c-.025-.954-.343-1.45-.979-1.45-.572,0-.954.445-1.017,1.45Zm-.865,2.022a2.136,2.136,0,0,0,1.233-.445l.331.483a2.317,2.317,0,0,1-1.64.6c-1.17,0-1.92-.9-1.92-2.34,0-1.4.725-2.365,1.857-2.365,1.17,0,1.793.877,1.793,2.391v.191h-2.823c.064.966.407,1.488,1.17,1.488" transform="translate(-479.017 -157.985)" fill="#a0a0a0"/>
    <path id="Path_625" data-name="Path 625" d="M598,389.391c0-1.17.521-2.391,1.92-2.391a2.042,2.042,0,0,1,1.424.483l-.343.534a1.747,1.747,0,0,0-1.068-.369c-.954,0-1.094.979-1.094,1.755,0,.75.165,1.666,1.119,1.666a1.6,1.6,0,0,0,1.081-.432l.381.47a2.008,2.008,0,0,1-1.5.61c-1.386-.013-1.92-1.2-1.92-2.327" transform="translate(-509.13 -157.985)" fill="#a0a0a0"/>
    <path id="Path_626" data-name="Path 626" d="M27.95,242.483a9.066,9.066,0,1,0,6.409,15.475,9.11,9.11,0,0,0,2.658-6.409,9.073,9.073,0,0,0-9.066-9.066m0,22.316A13.25,13.25,0,1,1,41.2,251.55,13.274,13.274,0,0,1,27.95,264.8" transform="translate(0 -28.193)" fill="#ffc20e"/>
    <rect id="Rectangle_113" data-name="Rectangle 113" width="1.03" height="1.03" transform="translate(42.382 208.06)" fill="#ffc20e"/>
    <rect id="Rectangle_114" data-name="Rectangle 114" width="1.03" height="1.03" transform="translate(42.382 206)" fill="#ffc20e"/>
    <rect id="Rectangle_115" data-name="Rectangle 115" width="0.966" height="1.005" transform="translate(39.483 209.09)" fill="#fff"/>
    <rect id="Rectangle_116" data-name="Rectangle 116" width="0.979" height="0.966" transform="translate(37.563 211.074)"/>
    <rect id="Rectangle_117" data-name="Rectangle 117" width="1.081" height="0.966" transform="translate(40.436 210.094)"/>
    <rect id="Rectangle_118" data-name="Rectangle 118" width="0.966" height="0.928" transform="translate(36.596 210.145)"/>
    <rect id="Rectangle_119" data-name="Rectangle 119" width="0.966" height="0.966" transform="translate(39.483 211.074)"/>
    <rect id="Rectangle_120" data-name="Rectangle 120" width="1.017" height="1.03" transform="translate(41.364 207.043)"/>
    <rect id="Rectangle_121" data-name="Rectangle 121" width="1.882" height="1.03" transform="translate(39.483 208.06)"/>
    <rect id="Rectangle_122" data-name="Rectangle 122" width="0.941" height="1.984" transform="translate(38.542 209.09)"/>
    <path id="Path_627" data-name="Path 627" d="M89.785,253.5v.966h-.979V253.5H87.191v.7h-.865v.865h.966v.966h-.966v-.966H85.3v1.513H84.33v.966h-.648v.966h-.712a54.688,54.688,0,0,0-3.4,6.37c-2.174-3.026-3.866-4.222-5.188-4.654-.712-.216-1.577.56-.394,1.793a22.081,22.081,0,0,1,4.425,7.489c.445,1.043,2.416,1.208,2.81.14a31.852,31.852,0,0,1,3.509-6.866V261.7h.776v-.966h.814V259.6h.966v-1.081h-.979v-.992h.979v.992h.954v-.979h.763v-1.183h.865v-.814H90.7V253.5Z" transform="translate(-51.243 -41.46)"/>
  </g>
</svg>
