<svg id="paypal" xmlns="http://www.w3.org/2000/svg" width="101.895" height="26.04" viewBox="0 0 101.895 26.04">
  <path id="Path_587" data-name="Path 587" d="M355.772,221.2h-5.5a1.075,1.075,0,0,0-.809.647L347.2,236.08a.429.429,0,0,0,.485.485H350.6a.429.429,0,0,0,.485-.485l.647-4.043a.74.74,0,0,1,.809-.647h1.779q5.58,0,6.308-5.337a4.24,4.24,0,0,0-.647-3.558,6.524,6.524,0,0,0-4.205-1.294m.647,5.337c-.323,1.941-1.779,1.941-3.235,1.941h-.97l.647-3.72c0-.162.162-.323.485-.323h.323c.97,0,1.941,0,2.426.647.323.162.323.647.323,1.456" transform="translate(-277.006 -214.407)" fill="#139ad6"/>
  <g id="Group_332" data-name="Group 332" transform="translate(30.568 6.793)">
    <path id="Path_588" data-name="Path 588" d="M159.772,221.2h-5.5a1.075,1.075,0,0,0-.809.647L151.2,236.08a.429.429,0,0,0,.485.485h2.588a1.075,1.075,0,0,0,.809-.647l.647-3.882a.74.74,0,0,1,.809-.647h1.779q5.58,0,6.308-5.337a4.24,4.24,0,0,0-.647-3.558,6.217,6.217,0,0,0-4.205-1.294m.647,5.337c-.323,1.941-1.779,1.941-3.235,1.941h-.809l.647-3.72c0-.162.162-.323.485-.323h.323c.97,0,1.941,0,2.426.647a1.732,1.732,0,0,1,.162,1.456" transform="translate(-151.2 -221.2)" fill="#263b80"/>
    <path id="Path_589" data-name="Path 589" d="M226.454,245.523h-2.588c-.162,0-.485.162-.485.324l-.162.809-.162-.323a3.8,3.8,0,0,0-3.073-1.132A6.215,6.215,0,0,0,214,250.537a4.821,4.821,0,0,0,.97,4.043,4.076,4.076,0,0,0,3.4,1.294,5.17,5.17,0,0,0,3.72-1.456l-.162.809a.429.429,0,0,0,.485.485h2.426a1.075,1.075,0,0,0,.809-.647l1.456-9.057c-.162-.162-.485-.485-.647-.485m-3.72,5.176a3.128,3.128,0,0,1-3.073,2.588,2.587,2.587,0,0,1-1.779-.647,3.45,3.45,0,0,1-.485-1.941,2.885,2.885,0,0,1,4.69-1.941,2.824,2.824,0,0,1,.647,1.941" transform="translate(-201.223 -240.348)" fill="#263b80"/>
  </g>
  <path id="Path_590" data-name="Path 590" d="M421.654,245.523h-2.588c-.162,0-.485.162-.485.324l-.162.809-.162-.323a3.8,3.8,0,0,0-3.073-1.132,6.215,6.215,0,0,0-5.984,5.337,4.821,4.821,0,0,0,.97,4.043,4.076,4.076,0,0,0,3.4,1.294,5.17,5.17,0,0,0,3.72-1.456l-.162.809a.429.429,0,0,0,.485.485h2.426a1.075,1.075,0,0,0,.809-.647l1.456-9.057c-.162-.162-.323-.485-.647-.485m-3.72,5.176a3.128,3.128,0,0,1-3.073,2.588,2.586,2.586,0,0,1-1.779-.647,3.449,3.449,0,0,1-.485-1.941,2.885,2.885,0,0,1,4.69-1.941,1.856,1.856,0,0,1,.647,1.941" transform="translate(-326.39 -233.555)" fill="#139ad6"/>
  <path id="Path_591" data-name="Path 591" d="M296.454,246.8H293.7a.84.84,0,0,0-.647.323l-3.558,5.5-1.617-5.176a.747.747,0,0,0-.809-.485h-2.588c-.323,0-.485.323-.485.647l2.911,8.572-2.75,3.882c-.162.323,0,.809.323.809h2.588a.841.841,0,0,0,.647-.323l8.9-12.777c.485-.485.162-.97-.162-.97" transform="translate(-226.583 -234.831)" fill="#263b80"/>
  <path id="Path_592" data-name="Path 592" d="M477.464,222.073,475.2,236.63a.429.429,0,0,0,.485.485h2.264a1.074,1.074,0,0,0,.809-.647l2.264-14.233a.429.429,0,0,0-.485-.485H477.95c-.162-.162-.323,0-.485.323" transform="translate(-379.128 -214.795)" fill="#139ad6"/>
  <path id="Path_593" data-name="Path 593" d="M18.6,189.541c-1.132-1.294-3.235-1.941-6.146-1.941H4.367a1.387,1.387,0,0,0-1.132.97L0,209.758a.74.74,0,0,0,.647.809H5.661l1.294-7.925v.323a1.388,1.388,0,0,1,1.132-.97h2.426c4.69,0,8.249-1.941,9.381-7.278v-.485h0a5.648,5.648,0,0,0-1.294-4.69" transform="translate(0 -187.6)" fill="#263b80"/>
  <path id="Path_594" data-name="Path 594" d="M40.156,220.4h0v.485c-1.132,5.5-4.69,7.278-9.381,7.278H28.35a1.388,1.388,0,0,0-1.132.97L25.6,239a.592.592,0,0,0,.647.647h4.205a.906.906,0,0,0,.97-.809v-.162l.809-5.014v-.324a.906.906,0,0,1,.97-.809h.647c4.043,0,7.278-1.617,8.087-6.47.323-1.941.162-3.72-.809-4.852a1.656,1.656,0,0,0-.97-.809" transform="translate(-20.424 -213.769)" fill="#139ad6"/>
  <path id="Path_595" data-name="Path 595" d="M46.045,216.085c-.162,0-.323-.162-.485-.162a.594.594,0,0,1-.485-.162,8.544,8.544,0,0,0-2.1-.162H36.664a.594.594,0,0,0-.485.162.889.889,0,0,0-.485.809l-1.294,8.41v.323a1.387,1.387,0,0,1,1.132-.97h2.426c4.69,0,8.249-1.941,9.381-7.278a.594.594,0,0,1,.162-.485c-.323-.162-.485-.323-.809-.323-.485-.162-.485-.162-.647-.162" transform="translate(-27.445 -209.939)" fill="#232c65"/>
</svg>
