<svg xmlns="http://www.w3.org/2000/svg" width="44.681" height="22.291" viewBox="0 0 44.681 22.291">
  <g id="Verified-by-visa-logo" transform="translate(0)">
    <g id="Group_253" data-name="Group 253" transform="translate(0 0)">
      <path id="Path_536" data-name="Path 536" d="M3.68,10.709,1.3,3.4H2.32L3.461,6.994c.316,1,.583,1.87.777,2.744h.024c.194-.85.51-1.773.826-2.72L6.327,3.4h1.02L4.724,10.709Z" transform="translate(-1.3 -2.89)" fill="#1a1f71"/>
      <path id="Path_537" data-name="Path 537" d="M25.5,14.238a1.685,1.685,0,0,0,1.8,1.821,3.616,3.616,0,0,0,1.457-.267l.17.68a4.461,4.461,0,0,1-1.748.316A2.429,2.429,0,0,1,24.6,14.141,2.553,2.553,0,0,1,27.053,11.3a2.212,2.212,0,0,1,2.161,2.477c0,.194-.024.34-.024.437l-3.691.024Zm2.793-.68A1.352,1.352,0,0,0,26.955,12,1.575,1.575,0,0,0,25.5,13.558Z" transform="translate(-18.942 -8.872)" fill="#1a1f71"/>
      <path id="Path_538" data-name="Path 538" d="M46.549,13.148c0-.607,0-1.141-.049-1.627h.826l.024,1.02H47.4A1.584,1.584,0,0,1,48.855,11.4a.91.91,0,0,1,.267.024v.9a1.283,1.283,0,0,0-.316-.024,1.351,1.351,0,0,0-1.287,1.214,2.407,2.407,0,0,0-.049.437v2.792h-.947V13.148Z" transform="translate(-35.524 -8.947)" fill="#1a1f71"/>
      <path id="Path_539" data-name="Path 539" d="M60.39,3.907a.567.567,0,0,1-.607.583.575.575,0,0,1-.583-.583.6.6,0,1,1,1.19,0M59.321,5.388h.947v5.245h-.947Z" transform="translate(-45.14 -2.814)" fill="#1a1f71"/>
      <path id="Path_540" data-name="Path 540" d="M66.528,9.119V4.6H65.8V3.874h.728V3.631a2.573,2.573,0,0,1,.607-1.845A1.856,1.856,0,0,1,68.423,1.3a2.4,2.4,0,0,1,.826.146l-.121.728a1.338,1.338,0,0,0-.607-.121c-.8,0-1.02.7-1.02,1.53v.291h1.263V4.6H67.5V9.119Z" transform="translate(-50.137 -1.3)" fill="#1a1f71"/>
      <path id="Path_541" data-name="Path 541" d="M82.39,3.907a.554.554,0,0,1-.607.583.575.575,0,0,1-.583-.583.587.587,0,0,1,.607-.607.567.567,0,0,1,.583.607M81.321,5.388h.947v5.245h-.947Z" transform="translate(-61.798 -2.814)" fill="#1a1f71"/>
      <path id="Path_542" data-name="Path 542" d="M89.8,14.238a1.685,1.685,0,0,0,1.8,1.821,3.616,3.616,0,0,0,1.457-.267l.17.68a4.461,4.461,0,0,1-1.748.316A2.43,2.43,0,0,1,88.9,14.141,2.553,2.553,0,0,1,91.353,11.3a2.212,2.212,0,0,1,2.161,2.477c0,.194-.024.34-.024.437l-3.691.024Zm2.793-.68A1.366,1.366,0,0,0,91.255,12,1.575,1.575,0,0,0,89.8,13.558Z" transform="translate(-67.628 -8.872)" fill="#1a1f71"/>
      <path id="Path_543" data-name="Path 543" d="M114.405,1.8V8.138a11.852,11.852,0,0,0,.049,1.36h-.85l-.049-.923h-.024a1.93,1.93,0,0,1-1.8,1.02A2.387,2.387,0,0,1,109.5,6.924c0-1.748,1.068-2.817,2.355-2.817a1.773,1.773,0,0,1,1.578.8h.024V1.8Zm-.947,4.589a1.2,1.2,0,0,0-.049-.413,1.414,1.414,0,0,0-1.384-1.117c-1,0-1.578.874-1.578,2.04,0,1.068.51,1.943,1.554,1.943A1.457,1.457,0,0,0,113.41,7.7a2.14,2.14,0,0,0,.049-.413Z" transform="translate(-83.226 -1.679)" fill="#1a1f71"/>
      <path id="Path_544" data-name="Path 544" d="M144.2,9.5c.024-.364.049-.9.049-1.36V1.8h.947V5.1h.024a1.977,1.977,0,0,1,1.8-.971c1.311,0,2.234,1.093,2.21,2.671,0,1.87-1.19,2.817-2.355,2.817a1.852,1.852,0,0,1-1.748-1H145.1l-.048.874Zm1-2.113a1.431,1.431,0,0,0,.049.34,1.48,1.48,0,0,0,1.433,1.117c1,0,1.6-.826,1.6-2.015,0-1.044-.534-1.943-1.554-1.943a1.513,1.513,0,0,0-1.457,1.166,1.691,1.691,0,0,0-.049.389v.947Z" transform="translate(-109.5 -1.679)" fill="#1a1f71"/>
      <path id="Path_545" data-name="Path 545" d="M165.944,11.9l1.141,3.108c.121.34.243.753.34,1.068h.024c.1-.316.194-.728.34-1.093l1.044-3.084h1.02l-1.433,3.74a7.841,7.841,0,0,1-1.8,3.278,2.306,2.306,0,0,1-1.166.607l-.243-.8a2.2,2.2,0,0,0,.826-.461,2.787,2.787,0,0,0,.8-1.068.558.558,0,0,0,.073-.219.79.79,0,0,0-.073-.243L164.9,11.9Z" transform="translate(-125.173 -9.326)" fill="#1a1f71"/>
    </g>
    <g id="Group_254" data-name="Group 254" transform="translate(5.682 11.194)">
      <path id="Path_546" data-name="Path 546" d="M34.85,48.2l-2.89,7.309L30.8,49.293A1.292,1.292,0,0,0,29.508,48.2H24.773l-.073.316a12.1,12.1,0,0,1,2.744.923,1.13,1.13,0,0,1,.656.947l2.21,8.572h2.963L37.789,48.2Z" transform="translate(-24.7 -48.006)" fill="#1a1f71"/>
      <path id="Path_547" data-name="Path 547" d="M76.307,48.2,74,58.957h2.793L79.075,48.2Z" transform="translate(-62.028 -48.006)" fill="#1a1f71"/>
      <path id="Path_548" data-name="Path 548" d="M97.355,50.581c0-.389.389-.8,1.19-.9a5.212,5.212,0,0,1,2.744.486l.486-2.283a7.5,7.5,0,0,0-2.6-.486c-2.744,0-4.687,1.457-4.711,3.57-.024,1.554,1.384,2.4,2.428,2.914,1.093.534,1.457.85,1.433,1.336,0,.728-.874,1.044-1.651,1.044a5.937,5.937,0,0,1-2.865-.68l-.51,2.355a8.327,8.327,0,0,0,3.084.559c2.914,0,4.832-1.433,4.832-3.691.049-2.792-3.885-2.962-3.861-4.225" transform="translate(-76.642 -47.4)" fill="#1a1f71"/>
      <path id="Path_549" data-name="Path 549" d="M129.7,55.069l1.481-4.031L132,55.069Zm1.068-6.945a1.283,1.283,0,0,0-1.19.777L125.4,58.857h2.914l.583-1.6h3.57l.34,1.6h2.574L133.146,48.1h-2.38Z" transform="translate(-100.947 -47.93)" fill="#1a1f71"/>
    </g>
  </g>
</svg>
