<svg id="visa" xmlns="http://www.w3.org/2000/svg" width="52.841" height="16.535" viewBox="0 0 52.841 16.535">
  <g id="Group_158" data-name="Group 158" transform="translate(4.937 0)">
    <g id="Group_157" data-name="Group 157">
      <path id="Path_487" data-name="Path 487" d="M43.924,100.23l-2.652,16.5H45.51l2.65-16.5Zm12.786,6.722c-1.481-.731-2.389-1.225-2.389-1.973.018-.68.768-1.377,2.442-1.377a7.377,7.377,0,0,1,3.157.611l.385.172.576-3.453a10.7,10.7,0,0,0-3.8-.68c-4.186,0-7.134,2.176-7.152,5.289-.035,2.3,2.11,3.572,3.715,4.336,1.64.784,2.2,1.293,2.2,1.99-.018,1.07-1.326,1.564-2.546,1.564a8.621,8.621,0,0,1-3.978-.85l-.558-.254-.593,3.588a13.238,13.238,0,0,0,4.728.852c4.449,0,7.343-2.143,7.38-5.461C60.284,109.485,59.153,108.092,56.71,106.952Zm15.038-6.671h-3.28a2.1,2.1,0,0,0-2.216,1.328l-6.3,15.124H64.4l1.225-3.274h4.977l.636,3.288h3.924Zm-4.885,9.873c.086.008,1.707-5.345,1.707-5.345l1.291,5.345ZM37.73,100.23l-4.153,11.212-.452-2.211a12.321,12.321,0,0,0-5.862-6.7l3.8,14.186H35.55l6.665-16.484H37.73Z" transform="translate(-27.262 -100.23)" fill="#2394bc"/>
    </g>
  </g>
  <path id="Path_488" data-name="Path 488" d="M9.4,102.373a2.77,2.77,0,0,0-2.758-2.125H.068L0,100.553c5.131,1.265,9.437,5.157,10.834,8.818Z" transform="translate(0 -100.245)" fill="#efc75e"/>
</svg>
