<svg xmlns="http://www.w3.org/2000/svg" xmlns:xlink="http://www.w3.org/1999/xlink" width="30.236" height="29.347" viewBox="0 0 30.236 29.347">
  <defs>
    <linearGradient id="linear-gradient" x1="0.03" y1="0.343" x2="0.886" y2="0.402" gradientUnits="objectBoundingBox">
      <stop offset="0" stop-color="#fe0"/>
      <stop offset="0.393" stop-color="#f70"/>
      <stop offset="0.761" stop-color="#ff2c2c"/>
      <stop offset="1" stop-color="#840909"/>
    </linearGradient>
  </defs>
  <g id="Body" transform="translate(0.88)">
    <path id="Path_322" data-name="Path 322" d="M162.291,1000.506s6.028-11.2,5.635-17.608-2.479-8.427-2.479-8.427" transform="translate(-162.291 -972.058)" fill="none" stroke="#000" stroke-linecap="round" stroke-linejoin="round" stroke-width="1.3"/>
    <path id="Path_324" data-name="Path 324" d="M164.728,988.782a21.144,21.144,0,0,0,21.195,0" transform="translate(-161.611 -968.069)" fill="none" stroke="#000" stroke-width="1.3"/>
    <path id="Path_325" data-name="Path 325" d="M166.89,997.079s-3.9-6-3.56-12.285" transform="translate(-139.909 -968.63)" fill="none" stroke="#000" stroke-linecap="round" stroke-linejoin="round" stroke-width="1.3"/>
    <g id="Ellipse_4" data-name="Ellipse 4" transform="translate(13.694 17.155)" fill="#fff" stroke="#000" stroke-width="1">
      <circle cx="0.639" cy="0.639" r="0.639" stroke="none"/>
      <circle cx="0.639" cy="0.639" r="0.139" fill="none"/>
    </g>
    <g id="stopwatch" transform="translate(14.651)">
      <path id="Path_336" data-name="Path 336" d="M5.536,2.314V1.7a.826.826,0,0,0,.6-.247.831.831,0,0,0,.253-.6A.848.848,0,0,0,5.536,0H3.84a.826.826,0,0,0-.6.247.831.831,0,0,0-.252.6A.848.848,0,0,0,3.84,1.7v.621A7.3,7.3,0,0,0,.79,3.384L.454,3.047A.847.847,0,0,0,.179,1.988a.846.846,0,0,0-1.09.1l-.8.8a.848.848,0,0,0-.184.926.848.848,0,0,0,.786.523.85.85,0,0,0,.363-.085l.2.2A7.352,7.352,0,1,0,5.536,2.314ZM4.688,16.4A6.363,6.363,0,0,1-1.218,12C-2.242,9.409-1.982,6.563.051,4.659l0,0,0,0a.257.257,0,0,0,.028-.044.283.283,0,0,0,.03-.046.278.278,0,0,0,.013-.055.154.154,0,0,0,0-.106.275.275,0,0,0-.01-.051A.286.286,0,0,0,.089,4.3a.285.285,0,0,0-.026-.043l0,0,0,0-.565-.567a.274.274,0,0,0-.119-.067.289.289,0,0,0-.283.066.281.281,0,0,1-.308.061.281.281,0,0,1-.173-.262.279.279,0,0,1,.081-.2l.8-.8A.282.282,0,0,1-.31,2.4a.283.283,0,0,1,.2.083.287.287,0,0,1,0,.4.267.267,0,0,0-.028.045A.286.286,0,0,0-.17,2.98a.266.266,0,0,0-.008.039.282.282,0,0,0-.013.067.284.284,0,0,0,.013.067.265.265,0,0,0,.008.039.3.3,0,0,0,.038.057.268.268,0,0,0,.024.036l.659.659,0,0A.279.279,0,0,0,.637,4l.019.007a.28.28,0,0,0,.094.018.28.28,0,0,0,.1-.019L.874,4a.28.28,0,0,0,.035-.017A6.736,6.736,0,0,1,4.146,2.853a.283.283,0,0,0,.259-.3V1.413a.283.283,0,0,0-.283-.283H3.84A.283.283,0,0,1,3.557.847a.277.277,0,0,1,.087-.2.271.271,0,0,1,.2-.081h1.7a.283.283,0,0,1,.283.283.276.276,0,0,1-.087.2.271.271,0,0,1-.2.081H5.254a.283.283,0,0,0-.283.283V2.549a.283.283,0,0,0,.26.3A6.5,6.5,0,0,1,11.086,9.9a6.441,6.441,0,0,1-6.4,6.5Zm0,0" transform="translate(2.662 0.001)"/>
      <path id="Path_337" data-name="Path 337" d="M33.789,109.973a6.5,6.5,0,1,0,6.5,6.5A6.5,6.5,0,0,0,33.789,109.973Zm0,12.442a5.938,5.938,0,1,1,5.938-5.938A5.938,5.938,0,0,1,33.789,122.415Zm0,0" transform="translate(-26.439 -106.863)"/>
      <path id="Path_342" data-name="Path 342" d="M4.729.083a.283.283,0,0,0-.4,0L1.217,3.2a.77.77,0,0,0-.081-.033,1.225,1.225,0,0,0-.566,0,.851.851,0,1,0,1.046.433L4.729.483A.283.283,0,0,0,4.729.083ZM.853,4.241a.283.283,0,1,1,.2-.485l0,0,0,0a.283.283,0,0,1-.2.479Zm0,0" transform="translate(3.876 9.713) rotate(-74)"/>
      <path id="Path_344" data-name="Path 344" d="M.359,15.247s-2.588-3.48-2.632-4.038.446-4.573.446-4.573l1.74-2.209-.58-.558-.848.223-.112-.87C-1.654,3.005-.087,2.152-.087,2.152L.359,2.6l-.112.625.625.647L3.349,2.6H4.2V1.661l-.6-.379L3.237.523,5.914.367l.379.6-.736.58-.312.6.134.625a34.857,34.857,0,0,1,3.5,1.093c.357.245,2.722,3.435,2.811,4.305s0,4.462-1.852,6.759-6.246,1.74-6.246,1.74l.268-.982s3.435-.045,4.06-.446a24.21,24.21,0,0,0,2.61-3.681l.312-3.592L8.39,4.606l-3.5-1.182L1.029,4.606l-2.3,3.369a7.441,7.441,0,0,0,0,4.086,6.829,6.829,0,0,0,2.744,2.874l2.387.758-.268,1.058L.761,15.827Z" transform="translate(2.602 -0.056)"/>
      <path id="Path_346" data-name="Path 346" d="M4.566.039A5.382,5.382,0,0,0,.01,4.992c-.024.364-.01.452.071.513s.425.1.5.03A.534.534,0,0,0,.668,5.2,4.859,4.859,0,0,1,1,3.819,4.251,4.251,0,0,1,6.668.954,4.732,4.732,0,0,1,9.432,3.162a.4.4,0,0,0,.58.233.384.384,0,0,0,.069-.537A5.407,5.407,0,0,0,6.051.039,7.078,7.078,0,0,0,4.566.039Z" transform="matrix(-0.966, -0.259, 0.259, -0.966, 10.943, 15.615)" fill="url(#linear-gradient)"/>
    </g>
  </g>
</svg>
