<svg xmlns="http://www.w3.org/2000/svg" xmlns:xlink="http://www.w3.org/1999/xlink" width="32.775" height="30.323" viewBox="0 0 32.775 30.323">
  <defs>
    <linearGradient id="linear-gradient" x1="0.03" y1="0.343" x2="0.886" y2="0.402" gradientUnits="objectBoundingBox">
      <stop offset="0" stop-color="#fe0"/>
      <stop offset="0.393" stop-color="#f70"/>
      <stop offset="0.761" stop-color="#ff2c2c"/>
      <stop offset="1" stop-color="#840909"/>
    </linearGradient>
    <linearGradient id="linear-gradient-2" x1="1" y1="0.378" x2="0.102" y2="0.393" gradientUnits="objectBoundingBox">
      <stop offset="0" stop-color="#16ffef"/>
      <stop offset="0.535" stop-color="#0ff607"/>
      <stop offset="1" stop-color="#1a9f28"/>
    </linearGradient>
  </defs>
  <g id="Group_392" data-name="Group 392" transform="translate(-166.129 -949.602)">
    <g id="vegan" transform="translate(173.814 959.987)">
      <g id="Group_64" data-name="Group 64" transform="translate(0)">
        <path id="Subtraction_4" data-name="Subtraction 4" d="M8.47,9.711a12.847,12.847,0,0,1-1.784-.126A7.9,7.9,0,0,1,2.158,7.552,7.892,7.892,0,0,1,.126,3.025,12.04,12.04,0,0,1,.028.459.479.479,0,0,1,.457.029C.534.022.817,0,1.243,0A12.619,12.619,0,0,1,3.025.126,7.9,7.9,0,0,1,7.552,2.159,7.323,7.323,0,0,1,9.37,5.589v4.1c-.071,0-.117-.007-.135-.009C9.182,9.688,8.9,9.711,8.47,9.711Z" fill="#c0d26c" stroke="#2f2413" stroke-width="1"/>
        <path id="Subtraction_3" data-name="Subtraction 3" d="M4.842,5.3H4.829a.469.469,0,0,1-.336-.139L.139.812A.475.475,0,1,1,.812.139L4.843,4.17V5.3h0Z" transform="translate(4.527 4.38)" fill="#2f2413"/>
      </g>
      <g id="Group_65" data-name="Group 65" transform="translate(9.37 0)">
        <path id="Subtraction_4-2" data-name="Subtraction 4" d="M8.472,0A12.851,12.851,0,0,0,6.687.126,7.9,7.9,0,0,0,2.159,2.159,7.891,7.891,0,0,0,.126,6.686a12.035,12.035,0,0,0-.1,2.566.479.479,0,0,0,.429.43c.077.007.36.029.786.029a12.626,12.626,0,0,0,1.783-.126A7.9,7.9,0,0,0,7.554,7.553,7.322,7.322,0,0,0,9.372,4.122V.019c-.071,0-.117.007-.135.009C9.185.023,8.9,0,8.472,0Z" transform="translate(9.372 9.711) rotate(180)" fill="#8aaf3b" stroke="#2f2413" stroke-width="1"/>
        <path id="Subtraction_3-2" data-name="Subtraction 3" d="M4.856,0H4.843A.471.471,0,0,0,4.506.14L.14,4.492A.476.476,0,0,0,.477,5.3a.475.475,0,0,0,.337-.139L4.857,1.134V0h0Z" transform="translate(4.857 9.684) rotate(180)" fill="#2f2413"/>
      </g>
      <line id="Line_1" data-name="Line 1" y2="5.433" transform="translate(9.372 7.633)" fill="none" stroke="#2f2413" stroke-linecap="round" stroke-width="1"/>
    </g>
    <g id="_26b6fb9ff06007a06d19c98e115276d7" data-name="26b6fb9ff06007a06d19c98e115276d7" transform="translate(166.129 949.602)">
      <g id="Group_66" data-name="Group 66" transform="translate(0 0)">
        <path id="Path_334" data-name="Path 334" d="M59.039-464.232a15.275,15.275,0,0,0-12.93,14.058c-.067,1.032-.03,1.284.2,1.455a.644.644,0,0,0,.794-.082c.156-.148.186-.252.186-.646a15.227,15.227,0,0,1,.72-4.216,14,14,0,0,1,17.614-8.818,14,14,0,0,1,7.861,6.591c.349.668.371.735.215.675-.1-.037-.853-.371-1.685-.742a12.427,12.427,0,0,0-1.715-.676.652.652,0,0,0-.564.69.962.962,0,0,0,.119.319c.119.141,4.929,2.256,5.129,2.256a.663.663,0,0,0,.334-.111,54.142,54.142,0,0,0,2.331-5.107.627.627,0,0,0-1.061-.438c-.052.074-.408.824-.794,1.685s-.712,1.589-.75,1.625-.186-.2-.349-.52a15.413,15.413,0,0,0-5.522-5.879,15.529,15.529,0,0,0-5.916-2.123A20.069,20.069,0,0,0,59.039-464.232Z" transform="translate(-44.873 464.344)" fill="url(#linear-gradient)"/>
        <path id="Path_335" data-name="Path 335" d="M40.511-29.307c-.156.148-.186.252-.186.616a15.085,15.085,0,0,1-.713,4.224,13.888,13.888,0,0,1-11.787,9.456,19.037,19.037,0,0,1-3.912-.111,13.753,13.753,0,0,1-9.085-5.945,8.567,8.567,0,0,1-1.039-1.885c.015-.015.8.319,1.744.735,1.811.8,1.922.824,2.227.5a.647.647,0,0,0,.037-.757,47.547,47.547,0,0,0-5.144-2.294.472.472,0,0,0-.379.141c-.126.119-2.123,4.528-2.264,4.98A.687.687,0,0,0,10.3-19a.8.8,0,0,0,.727-.089,17.532,17.532,0,0,0,.839-1.744l.72-1.618.453.816a15.333,15.333,0,0,0,12.292,7.875,15.058,15.058,0,0,0,10.547-3.325,19.759,19.759,0,0,0,2.695-2.835,15.153,15.153,0,0,0,2.932-8.009c.074-1.032.037-1.284-.2-1.462A.643.643,0,0,0,40.511-29.307Z" transform="translate(-10 44.033)" fill="url(#linear-gradient-2)"/>
      </g>
    </g>
  </g>
</svg>
