<svg xmlns="http://www.w3.org/2000/svg" width="94.38" height="29.138" viewBox="0 0 94.38 29.138">
  <g id="Group_390" data-name="Group 390" transform="translate(-262.203 -467.99)">
    <path id="Path_56" data-name="Path 56" d="M294.205,18.872c.8-1.2,1.6-2.269,2.336-3.4a1.21,1.21,0,0,1,1.2-.667c1.335,0,2.67-.067,4-.133.6,0,.8.2.8.8v3.07a1.464,1.464,0,0,1-.467,1.135c-1.068,1.335-2.136,2.737-3.2,4.072a.721.721,0,0,0,0,1.135c1.068,1.268,2.069,2.6,3.07,3.871a2.283,2.283,0,0,1,.534,1.669c-.067.934,0,1.8,0,2.737a.7.7,0,0,1-.667.8,16.626,16.626,0,0,1-4.072.067,1.587,1.587,0,0,1-1.135-.8c-.8-1.268-1.6-2.536-2.47-3.871-.8,1.135-1.6,2.136-2.269,3.271a2.643,2.643,0,0,1-2.8,1.468,12.6,12.6,0,0,1-2.737-.2c-.467-.133-.734-.334-.734-.868.067-1.068.067-2.069.067-3.137a1.719,1.719,0,0,1,.467-1.068c1.068-1.4,2.2-2.8,3.271-4.205a.57.57,0,0,0,0-.868c-1.068-1.268-2.069-2.536-3.07-3.8a2.957,2.957,0,0,1-.734-2.2c.067-.8,0-1.6,0-2.4a.64.64,0,0,1,.734-.734c1.4.067,2.8.067,4.138.133a.95.95,0,0,1,.868.6C292.336,16.536,293.2,17.67,294.205,18.872Z" transform="translate(54.034 462.569)" fill="#23b21f"/>
    <path id="Path_57" data-name="Path 57" d="M236.963,22.79v-4c0-1-.2-1.268-1.2-1.2-.734,0-.934-.267-.868-.934a32.452,32.452,0,0,0,0-3.6c-.067-.667.2-1.068.868-1,1,.067,1.068-.534,1.068-1.268.067-1.8-.2-3.6,0-5.473.067-1.068.133-1.135,1.2-.868a35.94,35.94,0,0,0,4.672.8c.467.067.668.267.6.734-.067,1.4-.2,2.737-.2,4.138-.067,1.335,0,1.4,1.335,1.4.934,0,1.8-.067,2.737-.133.534,0,.734.2.667.667a31.359,31.359,0,0,0-.134,5.006c0,.534-.2.667-.667.6-1.068,0-2.069,0-3.137-.067-.467,0-.734.133-.734.667,0,1.4,0,2.8.067,4.272.067,1.669,1,2.336,2.6,2.069.6-.067,1.135-.267,1.735-.334.467-.067.734.067.734.534-.067,1.335-.2,2.6-.267,3.938a.793.793,0,0,1-.534.667,9.352,9.352,0,0,1-7.743,1.2,3.59,3.59,0,0,1-2.737-3.538" transform="translate(70.894 465.993)" fill="#23b21f"/>
    <path id="Path_59" data-name="Path 59" d="M192.094,9.226c-1.335-4-3.938-6.808-8.21-7.743-4.472-.934-9.011-.6-13.55-.467-.6,0-.734.4-.667.934.133,4.405.2,8.877.267,13.283h-.067V17.9c-.067,3.538-.133,7.075-.267,10.613,0,.467,0,.8.667.868,3.738.133,7.476.2,11.214.067a10.4,10.4,0,0,0,8.277-4.138C193.429,20.373,194.029,14.966,192.094,9.226Zm-6.875,10.546c-1.6,3.07-4.472,3.871-7.743,3.2a.847.847,0,0,1-.734-1V8.625a1.029,1.029,0,0,1,.934-1.2c5.139-1,8.01,2.336,8.477,6.341A10.511,10.511,0,0,1,185.219,19.772Z" transform="translate(92.603 467.142)" fill="#23b21f"/>
    <path id="Path_62" data-name="Path 62" d="M273.879,19.273a8.528,8.528,0,0,0-7.409-6.007c-3.871-.4-6.942.934-8.811,4.472a12.1,12.1,0,0,0-.4,10.813,8.9,8.9,0,0,0,16.286.067,12.183,12.183,0,0,0,1-5.14A13.18,13.18,0,0,0,273.879,19.273ZM267.4,26.815a2.7,2.7,0,0,1-3.938,0,4.813,4.813,0,0,1,0-6.474,2.7,2.7,0,0,1,4.072.133,4.426,4.426,0,0,1,1.068,2.536A5.028,5.028,0,0,1,267.4,26.815Z" transform="translate(63.815 463.036)" fill="#23b21f"/>
    <path id="Path_63" data-name="Path 63" d="M224.919,20.66c-.6-3.4-2.269-6.074-5.54-7.342-4.138-1.669-8.677.467-10.613,4.806a14.054,14.054,0,0,0-1,7.008,9.236,9.236,0,0,0,9.612,8.811h.8a8.236,8.236,0,0,0,5.874-2.47,1.042,1.042,0,0,0,.267-1.2,24.78,24.78,0,0,0-1.6-3.271c-.267-.467-.467-.534-.934-.2a6.743,6.743,0,0,1-3.271,1.535,4.458,4.458,0,0,1-4.339-1.468c-.2-.267-.467-.667-.334-.934s.6-.2.868-.2c2.87-.267,5.74-.6,8.61-.868,1.135-.133,1.469-.467,1.669-1.6A6.764,6.764,0,0,0,224.919,20.66Zm-6.875.8c-1,.133-2.069.267-3.07.4-1.6.067-1.8-.2-1.335-1.8a2.633,2.633,0,0,1,2.536-2.136,3.054,3.054,0,0,1,2.47,2.67C218.778,21.127,218.645,21.394,218.044,21.461Z" transform="translate(79.935 463.184)" fill="#23b21f"/>
  </g>
</svg>
