<svg xmlns="http://www.w3.org/2000/svg" width="48.35" height="32.962" viewBox="0 0 48.35 32.962">
  <path id="delivery-truck" d="M39.529,642.611a4.464,4.464,0,0,0-3.15,1.3,4.375,4.375,0,0,0,0,6.262,4.482,4.482,0,0,0,3.15,1.3,4.431,4.431,0,0,0,0-8.861Zm0,6.892a2.462,2.462,0,1,1,0-4.923,2.462,2.462,0,0,1,0,4.923Zm1.142-21.65a.956.956,0,0,0-.66-.256H34.961a.987.987,0,0,0-.985.985v8.073a.987.987,0,0,0,.985.984h8.014a.987.987,0,0,0,.985-.984V631.25a.985.985,0,0,0-.325-.729Zm1.319,7.817H35.945v-6.114h3.682l2.363,2.127Zm-26.5,6.941a4.464,4.464,0,0,0-3.15,1.3,4.375,4.375,0,0,0,0,6.262,4.482,4.482,0,0,0,3.15,1.3,4.431,4.431,0,0,0,0-8.861Zm0,6.892a2.462,2.462,0,1,1,0-4.923,2.462,2.462,0,0,1,0,4.923ZM8.92,643.822H6.941V641.2a.985.985,0,1,0-1.969,0v3.6a.987.987,0,0,0,.985.985H8.92a.985.985,0,0,0,0-1.969Zm4.992-5.366a.987.987,0,0,0-.985-.985H.985a.985.985,0,0,0,0,1.969H12.927A.981.981,0,0,0,13.911,638.457ZM2.983,634.9l11.942.069A.994.994,0,0,0,15.92,634a.975.975,0,0,0-.975-.994L3,632.933h-.01a.985.985,0,0,0-.01,1.969Zm2.008-4.47H16.934a.984.984,0,1,0,0-1.969H4.992a.984.984,0,1,0,0,1.969ZM47.986,629.1h0l-7.049-5.838a.97.97,0,0,0-.63-.226h-8.29v-3.544a.987.987,0,0,0-.985-.984H5.956a.987.987,0,0,0-.985.984V626.7a.985.985,0,1,0,1.969,0v-6.222H30.058v23.343H21.985a.985.985,0,0,0,0,1.969H34.006a.985.985,0,0,0,0-1.969H32.027V625.008h7.935l6.419,5.316L46.312,643.8H45.288a.984.984,0,1,0,0,1.969h2a.979.979,0,0,0,.985-.975l.079-14.925A1.04,1.04,0,0,0,47.986,629.1Z" transform="translate(0 -618.51)" fill="#9ca3af" />
</svg>
