<svg id="payment-method" xmlns="http://www.w3.org/2000/svg" width="26.777" height="42.704" viewBox="0 0 26.777 42.704 ">
  <g id="Group_297" data-name="Group 297">
    <g id="Group_293" data-name="Group 293">
      <path id="Path_583" data-name="Path 583" d="M117.081,23.762c-.479-.375-5.483-5.927-6.834-6.712V2.641A2.639,2.639,0,0,0,107.606,0H94a2.639,2.639,0,0,0-2.641,2.641V27.868A2.639,2.639,0,0,0,94,30.509h5.927l-.244-2.075c-.078-.07-.131-.113-.209-.183H96.858a2.68,2.68,0,0,0-3.251-3.26V5.352A2.99,2.99,0,0,0,94.1,5.4,2.677,2.677,0,0,0,96.771,2.72a2.867,2.867,0,0,0-.044-.471h8.124a2.868,2.868,0,0,0-.044.471A2.671,2.671,0,0,0,107.484,5.4a2.99,2.99,0,0,0,.488-.044V24.52h0v5.509a10.006,10.006,0,0,1-1.953-2.807s-.506-5.657-3.373-5.657a1.97,1.97,0,0,0-.227.009s-2.171.183-.375,6.389l.8,6.9a15.659,15.659,0,0,0,3.373,6.328v.767a.75.75,0,0,0,.75.75h8.063a.746.746,0,0,0,.741-.662c.288-2.685,1.4-12.666,2.057-14.182a2.862,2.862,0,0,0,.227-.75A3.446,3.446,0,0,0,117.081,23.762Z" transform="translate(-91.358)" fill="#9ca3af" />
    </g>
    <g id="Group_294" data-name="Group 294" transform="translate(8.133 5.396)">
      <circle id="Ellipse_27" data-name="Ellipse 27" cx="1.604" cy="1.604" r="1.604" fill="#9ca3af" />
    </g>
    <g id="Group_296" data-name="Group 296" transform="translate(3.652 9.641)">
      <g id="Group_295" data-name="Group 295">
        <path id="Path_584" data-name="Path 584" d="M133.258,116.4a5.8,5.8,0,0,0,4.524,5.657,4.1,4.1,0,0,1,.253-.418,3.352,3.352,0,0,1,2.406-1.508,4.258,4.258,0,0,1,.471-.026,4.46,4.46,0,0,1,2.1.523,5.794,5.794,0,1,0-9.754-4.228Zm2.319-.514c.349,0,.357,0,.41-.349a3.442,3.442,0,0,1,.227-.776.221.221,0,0,1,.3-.148c.218.061.427.122.645.192.2.061.227.131.139.323a2.4,2.4,0,0,0-.244,1.229.793.793,0,0,0,.07.323.466.466,0,0,0,.828.113,1.983,1.983,0,0,0,.3-.532c.139-.331.27-.662.436-.968a1.74,1.74,0,0,1,2.65-.558,1.882,1.882,0,0,1,.619.968.268.268,0,0,0,.305.235c.174-.009.34,0,.514,0a.205.205,0,0,1,.235.227q.013.275,0,.549c0,.166-.1.235-.253.235h-.375c-.279,0-.288.009-.331.279a3.534,3.534,0,0,1-.279.985c-.122.244-.183.27-.436.2-.192-.052-.384-.1-.567-.166-.218-.07-.244-.131-.139-.331a3.163,3.163,0,0,0,.331-1.09,1.26,1.26,0,0,0-.1-.715.554.554,0,0,0-.976-.131,1.473,1.473,0,0,0-.235.41,9.867,9.867,0,0,1-.5,1.116,1.563,1.563,0,0,1-1.508.889,1.667,1.667,0,0,1-1.543-1.212c-.1-.3-.1-.3-.418-.305h-.314c-.235-.009-.279-.044-.279-.279v-.218C135.08,115.891,135.08,115.891,135.577,115.882Z" transform="translate(-133.258 -110.6)" fill="#9ca3af" />
      </g>
    </g>
  </g>
</svg>
